<svg width="109" height="89" viewBox="0 0 109 89" fill="none" xmlns="http://www.w3.org/2000/svg">
<g opacity="0.5">
<path d="M61.4329 63.4943C64.0043 63.4943 66.6818 63.4297 69.3912 63.3029L69.5781 63.2939L69.2678 62.584L69.1797 62.5885C65.872 62.745 62.4228 62.8029 58.9164 62.7596L58.7688 62.758L58.8586 63.4729L58.9703 63.4746C59.7964 63.4881 60.6174 63.4943 61.4329 63.4943ZM69.1926 63.0543C66.551 63.1755 63.9409 63.2367 61.4329 63.2367C60.6556 63.2367 59.8733 63.2305 59.0859 63.2193L59.0607 63.0189C62.489 63.0576 65.8641 63.001 69.1028 62.85L69.1926 63.0548V63.0543Z" fill="white"/>
<path d="M60.0629 70.0817C62.7365 70.0817 65.4471 70.0283 68.1178 69.9223L68.2043 69.9189L68.4708 69.1854L68.2795 69.1933C65.5638 69.2988 62.8207 69.3527 60.1263 69.3527C59.8143 69.3527 59.5012 69.3521 59.1869 69.3504H59.0724L58.9843 70.0789H59.1291C59.4411 70.0811 59.7526 70.0817 60.0629 70.0817ZM68.0213 69.6686C65.1193 69.782 62.191 69.8319 59.2744 69.8229L59.3002 69.6086C59.5764 69.6097 59.8519 69.6103 60.1263 69.6103C62.7612 69.6103 65.4415 69.5592 68.0982 69.4582L68.0219 69.6692L68.0213 69.6686Z" fill="white"/>
<path d="M58.784 71.8238H58.9299C61.7533 71.8098 64.6469 71.7424 67.5315 71.6229L67.6201 71.619L67.8643 70.8866L67.6779 70.8939C64.7687 71.0129 61.8443 71.0802 58.9861 71.0937H58.8721L58.7846 71.8232L58.784 71.8238ZM67.4321 71.3698C64.6301 71.4848 61.8196 71.5505 59.0747 71.5651L59.1005 71.3513C61.865 71.3367 64.6901 71.2721 67.5023 71.1593L67.4321 71.3698Z" fill="#FFE200"/>
<path d="M57.4965 77.8877L60.2817 77.8406C66.2355 77.7401 71.8599 77.6453 77.2412 77.5701L77.6593 77.5645L76.5616 76.8411L69.9136 76.9516C65.97 77.0162 61.9002 77.0835 57.7535 77.1565L57.6514 77.1581L57.4965 77.8877ZM76.8192 77.3186C71.5641 77.3927 66.0772 77.4853 60.2767 77.583L57.8152 77.6245L57.8601 77.4112C61.9709 77.3389 66.0065 77.2726 69.917 77.2087L76.4858 77.0992L76.8192 77.3186Z" fill="#00C5FF"/>
<path d="M89.0592 31.8171L89.1596 31.7901C89.6838 31.6487 91.2754 31.1908 92.7833 30.7317L92.8175 30.7154C92.8411 30.6997 92.8591 30.6947 92.8888 30.6947L92.9399 30.689C96.1034 29.7485 96.0921 29.6918 96.0618 29.5397C95.9676 29.1772 91.3685 19.7973 90.8444 18.7293L90.7916 18.6204L83.8282 21.537L88.5412 30.8097L88.6557 30.7525L95.0629 28.529C95.1235 28.5222 95.1712 28.5492 95.1813 28.593C95.1959 28.6356 95.1937 28.6665 95.1813 28.6906C95.1712 28.7097 95.1561 28.7209 95.1364 28.7254L88.6304 30.9792L89.0603 31.8182L89.0592 31.8171ZM92.6918 30.4898C91.2782 30.9203 89.7949 31.3485 89.1927 31.514L88.993 31.124L95.2049 28.9712C95.2835 28.9544 95.3592 28.8966 95.4058 28.8118C95.4153 28.7944 95.4232 28.7759 95.4294 28.7574C95.6 29.1182 95.7212 29.3803 95.7773 29.5122C95.5955 29.5908 94.9765 29.8147 92.8826 30.4371C92.8063 30.4393 92.7468 30.4567 92.6913 30.4904L92.6918 30.4898ZM95.0904 28.2652C95.05 28.2652 95.0113 28.272 94.9754 28.286L88.6596 30.4747L84.1829 21.6672L90.6665 18.9515C91.9903 21.6503 94.1571 26.085 95.206 28.2854C95.1695 28.2731 95.1302 28.2658 95.091 28.2658L95.0904 28.2652Z" fill="white"/>
<path d="M90.2854 20.8156C90.378 20.8156 90.4813 20.7729 90.548 20.7067C90.6232 20.6096 90.6575 20.4957 90.6575 20.3723C90.6575 20.2617 90.621 20.1472 90.5604 20.0664C90.4364 19.9031 90.1586 19.8891 90.0256 20.0664C89.9588 20.1304 89.9139 20.2471 89.9139 20.3723C89.9139 20.5109 89.9571 20.6265 90.0385 20.7067C90.1064 20.7752 90.1967 20.8156 90.286 20.8156H90.2854ZM90.2854 20.1865C90.3034 20.1865 90.3365 20.1972 90.3544 20.2207C90.3819 20.2578 90.3999 20.3173 90.3999 20.3723C90.3999 20.4379 90.3825 20.5002 90.3544 20.5378C90.3398 20.5485 90.2629 20.5675 90.2197 20.5243C90.1877 20.4929 90.1703 20.439 90.1703 20.3723C90.1703 20.3161 90.1883 20.2651 90.2192 20.2348C90.2478 20.1988 90.2669 20.1865 90.2854 20.1865Z" fill="white"/>
<path d="M88.5972 21.6158C88.6965 21.6158 88.7908 21.5658 88.8565 21.4789C88.9283 21.4087 88.9681 21.3043 88.9681 21.173C88.9681 21.0417 88.9333 20.9485 88.8542 20.8498C88.6842 20.6775 88.467 20.705 88.334 20.8391C88.2683 20.9407 88.2105 21.0366 88.2105 21.173C88.2105 21.3094 88.2706 21.4098 88.3228 21.4789C88.3895 21.5687 88.4844 21.6158 88.5972 21.6158ZM88.5972 20.9867C88.6163 20.9867 88.6421 21.0002 88.6634 21.0209C88.696 21.0625 88.7117 21.1068 88.7117 21.173C88.7117 21.2516 88.6881 21.2858 88.6628 21.3111C88.6342 21.3464 88.6151 21.3588 88.5972 21.3588C88.5663 21.3588 88.5472 21.3492 88.5287 21.3245C88.4917 21.2763 88.4675 21.2319 88.4675 21.173C88.4675 21.1141 88.4934 21.0658 88.5355 20.9962H88.5366C88.5427 20.9962 88.568 20.9867 88.5972 20.9867Z" fill="white"/>
<path d="M86.8239 22.1737C86.9356 22.1737 87.0304 22.126 87.0984 22.0368C87.132 21.9919 87.2095 21.8724 87.2095 21.7309C87.2095 21.5817 87.1404 21.4661 87.0984 21.4111C87.0551 21.3667 86.962 21.2736 86.8239 21.2736C86.7403 21.2736 86.6567 21.3151 86.5753 21.3976C86.4951 21.4778 86.4524 21.5934 86.4524 21.7315C86.4524 21.8561 86.4973 21.9728 86.5759 22.0514C86.6286 22.1243 86.7235 22.1748 86.8239 22.1748V22.1737ZM86.825 21.53C86.8458 21.53 86.8722 21.5457 86.9047 21.5789C86.9143 21.5946 86.9524 21.6557 86.9524 21.7309C86.9524 21.7837 86.9216 21.8437 86.8924 21.8825C86.8632 21.9217 86.8144 21.9414 86.7695 21.8825C86.7274 21.8381 86.7089 21.7871 86.7089 21.7309C86.7089 21.6636 86.7263 21.6097 86.7571 21.5789C86.7947 21.5413 86.8183 21.5312 86.825 21.53Z" fill="white"/>
<path d="M85.4786 22.8597C85.5908 22.8597 85.6862 22.812 85.753 22.7222C85.8181 22.6358 85.8501 22.5353 85.8501 22.4163C85.8501 22.2743 85.8018 22.1767 85.7597 22.1071C85.5914 21.927 85.3798 21.9331 85.2305 22.0824C85.1424 22.1913 85.1071 22.2912 85.1071 22.4163C85.1071 22.5488 85.1475 22.6537 85.2305 22.7362C85.2844 22.8097 85.3792 22.8597 85.478 22.8597H85.4786ZM85.4786 22.2306C85.51 22.2306 85.5364 22.2412 85.5588 22.2642C85.5723 22.294 85.5931 22.3423 85.5931 22.4163C85.5931 22.4792 85.579 22.5258 85.5476 22.5679C85.5173 22.6077 85.4707 22.6285 85.4241 22.5679C85.3871 22.5291 85.3641 22.4955 85.3641 22.4163C85.3641 22.3501 85.3798 22.3063 85.4213 22.2541C85.4331 22.244 85.4589 22.2306 85.478 22.2306H85.4786Z" fill="white"/>
<path d="M91.2862 22.6172C91.3906 22.6172 91.4984 22.5627 91.5612 22.4797C91.6263 22.3921 91.6583 22.2922 91.6583 22.1738C91.6583 22.0554 91.6263 21.9555 91.5612 21.868C91.4462 21.7142 91.1903 21.6884 91.0382 21.8393C90.9501 21.9488 90.9153 22.0487 90.9153 22.1738C90.9153 22.3057 90.9557 22.4101 91.0382 22.4931C91.0926 22.5672 91.1875 22.6172 91.2868 22.6172H91.2862ZM91.2862 21.9881C91.3076 21.9881 91.339 22.001 91.3547 22.0223C91.3867 22.0649 91.4007 22.1115 91.4007 22.1744C91.4007 22.2372 91.3867 22.2832 91.3547 22.3259C91.3194 22.3725 91.2486 22.3495 91.2313 22.3259C91.1948 22.2877 91.1718 22.2541 91.1718 22.1749C91.1718 22.1087 91.1875 22.0644 91.229 22.0122C91.2402 22.0021 91.266 21.9892 91.2857 21.9892L91.2862 21.9881Z" fill="white"/>
<path d="M89.5981 23.4173C89.6985 23.4173 89.7934 23.3668 89.8585 23.2798C89.9247 23.2159 89.9696 23.0991 89.9696 22.974C89.9696 22.8359 89.927 22.7203 89.8461 22.6401C89.7648 22.5581 89.6811 22.5166 89.5981 22.5166C89.4595 22.5166 89.3663 22.6098 89.3354 22.6401C89.2816 22.7097 89.2125 22.8253 89.2125 22.974C89.2125 23.1227 89.29 23.2349 89.3231 23.2798C89.391 23.3696 89.4858 23.4173 89.5981 23.4173ZM89.5981 22.7742C89.6037 22.7748 89.6273 22.7849 89.6643 22.8219C89.6957 22.8528 89.7131 22.9072 89.7131 22.974C89.7131 23.0301 89.6952 23.0817 89.6649 23.1115C89.6362 23.148 89.6166 23.1597 89.5981 23.1597C89.5667 23.1597 89.5481 23.1502 89.5291 23.1249C89.5004 23.0868 89.4696 23.0267 89.4696 22.9734C89.4696 22.8988 89.5072 22.8376 89.5296 22.8079C89.5504 22.7893 89.5768 22.7736 89.5981 22.7736V22.7742Z" fill="white"/>
<path d="M87.8245 23.9603C87.9255 23.9603 88.0164 23.9221 88.0877 23.8509C88.168 23.7712 88.2112 23.6556 88.2112 23.517C88.2112 23.3918 88.1663 23.2751 88.0866 23.1971C87.9839 23.0551 87.7055 23.0253 87.5652 23.2111C87.4979 23.2768 87.4536 23.3929 87.4536 23.517C87.4536 23.6545 87.4962 23.7701 87.5765 23.8509C87.6466 23.9205 87.737 23.9603 87.8245 23.9603ZM87.8245 23.3312C87.8554 23.3312 87.8745 23.3407 87.893 23.3654C87.9356 23.4098 87.9536 23.4608 87.9536 23.517C87.9536 23.5843 87.9362 23.6376 87.9053 23.6685C87.8672 23.7061 87.8116 23.7224 87.7577 23.6685C87.7269 23.6376 87.7095 23.5837 87.7095 23.5164C87.7095 23.4603 87.7274 23.4092 87.7583 23.3783C87.7869 23.343 87.806 23.3306 87.824 23.3306L87.8245 23.3312Z" fill="white"/>
<path d="M86.4805 24.6609C86.5921 24.6609 86.6876 24.6137 86.7549 24.5239C86.7886 24.4785 86.8666 24.3589 86.8666 24.2175C86.8666 24.0682 86.7976 23.9526 86.7555 23.8976C86.7122 23.8527 86.6191 23.7601 86.4805 23.7601C86.3969 23.7601 86.3138 23.8017 86.2319 23.8842C86.1516 23.9644 86.109 24.08 86.109 24.2181C86.109 24.3427 86.1539 24.4594 86.2324 24.538C86.2852 24.6115 86.38 24.6614 86.4805 24.6614V24.6609ZM86.4816 24.0172C86.5024 24.0172 86.5287 24.0329 86.5613 24.066C86.5714 24.0817 86.609 24.1429 86.609 24.2181C86.609 24.2708 86.5781 24.3309 86.5489 24.3702C86.5198 24.4083 86.4692 24.4285 86.426 24.3702C86.3839 24.3258 86.3654 24.2748 86.3654 24.2181C86.3654 24.1507 86.3828 24.0969 86.4137 24.066C86.4507 24.0284 86.4749 24.0183 86.4816 24.0172Z" fill="white"/>
<path d="M92.1591 24.2471C92.259 24.2471 92.3539 24.1966 92.419 24.1096C92.4857 24.0462 92.5306 23.9295 92.5306 23.8038C92.5306 23.6651 92.4874 23.5495 92.4061 23.4693C92.3252 23.3879 92.2416 23.3464 92.1586 23.3464C92.0205 23.3464 91.9273 23.4395 91.8959 23.4698C91.8151 23.5512 91.7725 23.6668 91.7725 23.8043C91.7725 23.9289 91.8174 24.0451 91.8954 24.1236C91.952 24.2 92.0463 24.2477 92.1586 24.2477L92.1591 24.2471ZM92.1591 23.604C92.1642 23.6045 92.1883 23.6152 92.2248 23.6517C92.2568 23.6831 92.2742 23.737 92.2742 23.8038C92.2742 23.8599 92.2562 23.9109 92.2259 23.9407C92.1973 23.9772 92.1771 23.9895 92.1591 23.9895C92.1277 23.9895 92.1092 23.98 92.0901 23.9547C92.0486 23.9109 92.03 23.8593 92.03 23.8038C92.03 23.737 92.0474 23.6831 92.0789 23.6517C92.1114 23.6197 92.1378 23.604 92.1591 23.604Z" fill="white"/>
<path d="M90.4563 25.0329C90.5489 25.0329 90.6522 24.9902 90.7189 24.9235C90.7941 24.8264 90.8284 24.7124 90.8284 24.589C90.8284 24.4779 90.7919 24.3639 90.7307 24.2831C90.6078 24.1198 90.3289 24.1058 90.1959 24.2831C90.1297 24.3477 90.0848 24.4638 90.0848 24.589C90.0848 24.727 90.1274 24.8426 90.2082 24.9235C90.2767 24.9925 90.3676 25.0329 90.4563 25.0329ZM90.4563 24.4038C90.4743 24.4038 90.5074 24.4145 90.5253 24.4386C90.5528 24.4756 90.5708 24.5345 90.5708 24.5895C90.5708 24.6552 90.5534 24.7175 90.5253 24.7551C90.5107 24.7658 90.4333 24.7843 90.3901 24.7416C90.3586 24.7102 90.3412 24.6563 90.3412 24.5895C90.3412 24.5334 90.3592 24.4824 90.3895 24.4521C90.4181 24.4161 90.4383 24.4038 90.4563 24.4038Z" fill="white"/>
<path d="M88.6977 25.5901C88.7964 25.5901 88.8913 25.5401 88.9569 25.4531C89.0237 25.3886 89.0686 25.2719 89.0686 25.1467C89.0686 25.0087 89.026 24.8931 88.9451 24.8128C88.7959 24.6635 88.5686 24.6792 88.4344 24.8128C88.3598 24.9093 88.3256 25.0233 88.3256 25.1462C88.3256 25.2573 88.3621 25.3718 88.4232 25.4526C88.49 25.5424 88.5848 25.5895 88.6977 25.5895V25.5901ZM88.6977 24.961C88.7167 24.961 88.7425 24.9744 88.7639 24.9952C88.7947 25.0261 88.8121 25.0799 88.8121 25.1467C88.8121 25.2034 88.7942 25.2545 88.7639 25.2842C88.7347 25.3201 88.7156 25.3325 88.6977 25.3325C88.6668 25.3325 88.6477 25.3229 88.6292 25.2983C88.6011 25.2612 88.5832 25.2017 88.5832 25.1462C88.5832 25.0805 88.6006 25.0188 88.6286 24.9806C88.6398 24.9711 88.6662 24.9604 88.6977 24.9604V24.961Z" fill="white"/>
<path d="M87.3526 26.2765C87.4413 26.2765 87.5322 26.2366 87.6012 26.167C87.6815 26.0868 87.7241 25.9712 87.7241 25.8331C87.7241 25.7085 87.6792 25.5918 87.6007 25.5132C87.5473 25.4397 87.4531 25.3898 87.3526 25.3898C87.2409 25.3898 87.1455 25.4369 87.0782 25.5267C87.0445 25.5722 86.9671 25.6917 86.9671 25.8331C86.9671 25.9745 87.0237 26.0643 87.0698 26.1412L87.1068 26.2041H87.1472C87.2089 26.2507 87.2813 26.2759 87.352 26.2759L87.3526 26.2765ZM87.3526 25.6474C87.3711 25.6474 87.3908 25.6591 87.407 25.681C87.4491 25.7254 87.4677 25.7764 87.4677 25.8331C87.4677 25.9005 87.4503 25.9543 87.4194 25.9852C87.3784 26.0262 87.3279 26.0267 87.2869 25.9852L87.2634 25.9616C87.2404 25.9195 87.2241 25.8803 87.2241 25.8331C87.2241 25.7804 87.255 25.7203 87.2841 25.681C87.3027 25.6569 87.3212 25.6474 87.3526 25.6474Z" fill="white"/>
<path d="M92.6743 25.9329C92.7742 25.9329 92.869 25.883 92.9341 25.7954C93.0054 25.7264 93.0458 25.622 93.0458 25.4896C93.0458 25.3571 93.0048 25.2533 92.9217 25.1697C92.869 25.0967 92.7742 25.0462 92.6743 25.0462C92.562 25.0462 92.4666 25.0939 92.3998 25.1837C92.3482 25.2522 92.2887 25.3493 92.2887 25.4896C92.2887 25.6299 92.3527 25.7326 92.4004 25.796C92.4672 25.8852 92.562 25.9329 92.6748 25.9329H92.6743ZM92.6743 25.3038C92.6922 25.3038 92.7119 25.3161 92.7281 25.338C92.7652 25.3773 92.7887 25.411 92.7887 25.4896C92.7887 25.5681 92.7652 25.6024 92.7399 25.627C92.7113 25.663 92.6922 25.6753 92.6737 25.6753C92.6428 25.6753 92.6232 25.6658 92.6052 25.6416C92.5688 25.5934 92.5446 25.5496 92.5446 25.4896C92.5446 25.4295 92.5688 25.3863 92.6047 25.3386C92.6238 25.3133 92.6428 25.3038 92.6737 25.3038H92.6743Z" fill="white"/>
<path d="M90.9715 26.7341C91.0832 26.7341 91.1786 26.6869 91.2459 26.5971C91.2796 26.5517 91.3571 26.4322 91.3571 26.2907C91.3571 26.1415 91.288 26.0258 91.2459 25.9708C91.0647 25.7868 90.8946 25.7834 90.7223 25.9574C90.6421 26.0376 90.5994 26.1532 90.5994 26.2913C90.5994 26.4164 90.6449 26.5326 90.7229 26.6112C90.7757 26.6847 90.8705 26.7346 90.9709 26.7346L90.9715 26.7341ZM90.9726 26.0909C90.994 26.0909 91.0203 26.1067 91.0523 26.1392C91.0619 26.1549 91.1 26.2161 91.1 26.2913C91.1 26.344 91.0692 26.4047 91.04 26.4434C91.0108 26.4821 90.9603 26.5012 90.9171 26.4434C90.875 26.399 90.8565 26.348 90.8565 26.2913C90.8565 26.224 90.8739 26.1701 90.9047 26.1392C90.9418 26.1022 90.9665 26.0915 90.9726 26.0909Z" fill="white"/>
<path d="M89.2122 27.2767C89.3053 27.2767 89.4086 27.2335 89.4748 27.1679C89.55 27.0697 89.5842 26.9557 89.5842 26.8339C89.5842 26.724 89.5478 26.6095 89.4871 26.5281C89.3642 26.3642 89.087 26.3485 88.9523 26.5281C88.8855 26.5932 88.8412 26.7099 88.8412 26.8345C88.8412 26.972 88.8833 27.087 88.9635 27.1679C89.0343 27.238 89.1246 27.2773 89.2122 27.2773V27.2767ZM89.2122 26.6476C89.2335 26.6476 89.2655 26.66 89.2806 26.6813C89.3087 26.7189 89.3266 26.7784 89.3266 26.8334C89.3266 26.8985 89.3092 26.9608 89.2806 26.9995C89.2705 27.0057 89.1925 27.0315 89.1448 26.9849C89.1151 26.9546 89.0977 26.9002 89.0977 26.8334C89.0977 26.7767 89.1156 26.7256 89.1459 26.6953C89.1673 26.6695 89.1869 26.6476 89.2122 26.6476Z" fill="white"/>
<path d="M87.8677 27.9773C87.9514 27.9773 88.035 27.9357 88.1164 27.8533C88.1944 27.7752 88.2393 27.6585 88.2393 27.5339C88.2393 27.3959 88.1966 27.2803 88.1158 27.1995C88.035 27.1175 87.9508 27.076 87.8677 27.076C87.7656 27.076 87.6629 27.1422 87.6051 27.1995C87.5299 27.2977 87.4957 27.4116 87.4957 27.5339C87.4957 27.6439 87.5321 27.7584 87.5928 27.8398C87.6623 27.9111 87.7656 27.9773 87.8672 27.9773H87.8677ZM87.8677 27.3336C87.8728 27.3347 87.8969 27.3448 87.9334 27.3818C87.9648 27.4133 87.9817 27.4671 87.9817 27.5339C87.9817 27.59 87.9637 27.6411 87.9334 27.6714C87.8975 27.7079 87.8734 27.718 87.8661 27.7197C87.8515 27.718 87.8127 27.6984 87.7858 27.6714C87.7701 27.6479 87.7521 27.5889 87.7521 27.5339C87.7521 27.4683 87.7695 27.4065 87.7982 27.3678C87.8133 27.3543 87.8532 27.3347 87.8672 27.3336H87.8677Z" fill="white"/>
<path d="M93.6037 27.5911C93.7103 27.5911 93.8153 27.5383 93.8787 27.4536C93.9438 27.366 93.9752 27.2661 93.9752 27.1477C93.9752 27.0074 93.9303 26.9126 93.886 26.8385C93.7277 26.669 93.5448 26.6595 93.3551 26.8014L93.322 26.8385C93.2776 26.9126 93.2328 27.0074 93.2328 27.1477C93.2328 27.2661 93.2642 27.366 93.3293 27.4536C93.4236 27.5495 93.5117 27.5911 93.6037 27.5911ZM93.6037 26.962C93.6284 26.962 93.6671 26.9777 93.684 26.9951C93.6974 27.0248 93.7176 27.0736 93.7176 27.1471C93.7176 27.2094 93.7036 27.2566 93.6722 27.2992C93.6351 27.3492 93.5538 27.3161 93.5223 27.2846C93.5032 27.2566 93.4892 27.2094 93.4892 27.1471C93.4892 27.0849 93.5044 27.0388 93.5296 26.9928C93.5678 26.9676 93.5902 26.962 93.6037 26.962Z" fill="white"/>
<path d="M91.9156 28.392C92.016 28.392 92.1115 28.3414 92.176 28.2539C92.2422 28.1899 92.2871 28.0732 92.2871 27.9486C92.2871 27.8105 92.2445 27.6949 92.1636 27.6141C92.0823 27.5322 91.9987 27.4907 91.9156 27.4907C91.7775 27.4907 91.6838 27.5838 91.653 27.6141C91.5991 27.6837 91.5301 27.7993 91.5301 27.9486C91.5301 28.0979 91.6075 28.2096 91.6406 28.2545C91.7085 28.3442 91.8034 28.392 91.9156 28.392ZM91.9156 27.7488C91.9212 27.7494 91.9448 27.7595 91.9818 27.7965C92.0132 27.8279 92.0306 27.8818 92.0306 27.9486C92.0306 28.0047 92.0127 28.0558 91.9824 28.0861C91.9538 28.1226 91.9341 28.1344 91.9156 28.1344C91.8842 28.1344 91.8656 28.1248 91.8471 28.1001C91.8179 28.0614 91.7871 28.0014 91.7871 27.9486C91.7871 27.874 91.8247 27.8122 91.8471 27.7825C91.8679 27.764 91.8943 27.7483 91.9156 27.7483V27.7488Z" fill="white"/>
<path d="M90.1415 28.9356C90.242 28.9356 90.3335 28.8975 90.4047 28.8262C90.458 28.7577 90.5282 28.6421 90.5282 28.4928C90.5282 28.3436 90.4496 28.2313 90.416 28.1864C90.2897 28.0169 90.0203 28.0012 89.8817 28.1864C89.8155 28.251 89.7706 28.3671 89.7706 28.4923C89.7706 28.6303 89.8132 28.7459 89.894 28.8262C89.9625 28.8952 90.0534 28.9351 90.1415 28.9351V28.9356ZM90.1415 28.3065C90.1724 28.3065 90.1915 28.3161 90.21 28.3407C90.2392 28.38 90.2706 28.4401 90.2706 28.4928C90.2706 28.5669 90.233 28.6281 90.21 28.6584C90.1926 28.6741 90.1281 28.6982 90.0753 28.6449C90.0439 28.6135 90.0265 28.5596 90.0265 28.4928C90.0265 28.4361 90.0444 28.3851 90.0747 28.3553C90.1034 28.3194 90.123 28.3071 90.141 28.3071L90.1415 28.3065Z" fill="white"/>
<path d="M88.7973 29.6367C88.9354 29.6367 89.0291 29.5435 89.06 29.5132C89.1329 29.4178 89.1688 29.3039 89.1688 29.1933C89.1688 29.0704 89.1346 28.9571 89.0723 28.8735C89.0291 28.8291 88.9359 28.736 88.7979 28.736C88.7143 28.736 88.6306 28.7775 88.5493 28.86C88.469 28.9402 88.4264 29.0558 88.4264 29.1939C88.4264 29.3191 88.4713 29.4352 88.5498 29.5138C88.6306 29.5957 88.7148 29.6373 88.7979 29.6373L88.7973 29.6367ZM88.7984 28.993C88.8192 28.993 88.8456 29.0087 88.8781 29.0418C88.8944 29.0659 88.9112 29.1277 88.9112 29.1939C88.9112 29.2489 88.8933 29.3084 88.8658 29.3454C88.8456 29.3634 88.8192 29.3791 88.7973 29.3797C88.7911 29.3785 88.767 29.3679 88.7305 29.332C88.7002 29.3017 88.6817 29.25 88.6817 29.1939C88.6817 29.1266 88.6991 29.0727 88.73 29.0418C88.767 29.0042 88.7911 28.9941 88.7979 28.993H88.7984Z" fill="white"/>
<path d="M30.1022 30.2467L30.5136 29.4049L24.025 27.1702C23.979 27.1528 23.9436 27.0821 23.961 27.0367C23.9801 26.9794 24.0312 26.9508 24.0705 26.9508L30.6214 29.236L35.3186 19.9644L28.3704 17.0479L28.3176 17.1567C27.4618 18.9004 23.1916 27.6158 23.1013 27.9604L23.0884 28.0098L23.1136 28.0603C23.2404 28.2915 27.9719 29.6457 29.9995 30.2176L30.1028 30.2467H30.1022ZM30.1544 29.5531L29.9653 29.9403C27.8254 29.3359 23.9818 28.2101 23.3824 27.9424C23.438 27.8117 23.557 27.5535 23.7248 27.1983C23.7624 27.2931 23.8381 27.3745 23.938 27.4121L30.1544 29.5531ZM34.9634 20.094L30.5001 28.9027L24.1821 26.7117C24.1159 26.687 24.0295 26.6865 23.9548 26.7117C25.0049 24.5096 27.17 20.0761 28.4938 17.3778L34.9634 20.094Z" fill="white"/>
<path d="M28.8748 19.2568C28.9568 19.2568 29.0404 19.2152 29.1223 19.1339C29.2037 19.0519 29.2463 18.9363 29.2463 18.7994C29.2463 18.6748 29.2014 18.5586 29.1234 18.4795C28.9528 18.3095 28.7609 18.3313 28.6262 18.4649L28.5998 18.4935C28.5667 18.5384 28.4887 18.658 28.4887 18.7994C28.4887 18.9094 28.528 19.0227 28.5998 19.1193C28.643 19.1642 28.7368 19.2568 28.8748 19.2568ZM28.8748 18.6136C28.8804 18.6142 28.904 18.6243 28.9416 18.6619C28.9713 18.6916 28.9899 18.7438 28.9899 18.7994C28.9899 18.8662 28.9725 18.92 28.941 18.952C28.9046 18.988 28.8804 18.9986 28.8743 18.9992C28.8529 18.9992 28.826 18.9835 28.7934 18.9509C28.7833 18.9352 28.7457 18.8735 28.7457 18.7994C28.7457 18.7466 28.7772 18.6866 28.8064 18.6473C28.8294 18.6265 28.8552 18.6136 28.8748 18.6136Z" fill="white"/>
<path d="M30.563 20.0429C30.6629 20.0429 30.7538 20.0053 30.8256 19.934C30.8896 19.8347 30.9351 19.7398 30.9351 19.6001C30.9351 19.4817 30.9031 19.3818 30.838 19.2942C30.7089 19.1242 30.4423 19.109 30.3031 19.2942C30.2313 19.3633 30.1915 19.4682 30.1915 19.6006C30.1915 19.7258 30.2268 19.8257 30.306 19.9245C30.3851 20.0041 30.476 20.044 30.5635 20.044L30.563 20.0429ZM30.623 19.7763C30.6124 19.7763 30.5484 19.8032 30.4962 19.751C30.4637 19.7095 30.4479 19.6657 30.4479 19.5995C30.4479 19.5204 30.4709 19.4867 30.4962 19.462C30.545 19.402 30.5978 19.4037 30.632 19.448C30.6634 19.4901 30.6775 19.5372 30.6775 19.5995C30.6775 19.6725 30.6567 19.7213 30.6242 19.7763C30.6242 19.7763 30.623 19.7763 30.6225 19.7763H30.623Z" fill="white"/>
<path d="M32.3221 20.6012C32.4344 20.6012 32.5298 20.5535 32.5971 20.4637C32.6302 20.4199 32.7083 20.3009 32.7083 20.1578C32.7083 20.008 32.6381 19.8924 32.5966 19.8374C32.4417 19.678 32.2223 19.6752 32.0741 19.8239C31.9938 19.9042 31.9512 20.0198 31.9512 20.1578C31.9512 20.283 31.9961 20.3997 32.0747 20.4777C32.1274 20.5507 32.2223 20.6012 32.3221 20.6012ZM32.3221 19.9721C32.3536 19.9721 32.38 19.9827 32.4024 20.0057C32.4131 20.022 32.4512 20.0832 32.4512 20.1578C32.4512 20.2106 32.4204 20.2706 32.3912 20.3088C32.3609 20.3486 32.3115 20.3688 32.2683 20.3088C32.2262 20.2645 32.2077 20.2134 32.2077 20.1573C32.2077 20.0899 32.2245 20.036 32.2559 20.0052C32.2767 19.9839 32.3025 19.9709 32.3221 19.9709V19.9721Z" fill="white"/>
<path d="M33.6813 21.2871C33.77 21.2871 33.8603 21.2472 33.9293 21.1777C34.0174 21.0693 34.0522 20.9694 34.0522 20.8437C34.0522 20.7113 34.0118 20.6069 33.9288 20.5239C33.8755 20.4509 33.7812 20.4004 33.6813 20.4004C33.5691 20.4004 33.4736 20.4481 33.4063 20.5379C33.3547 20.6064 33.2952 20.7034 33.2952 20.8437C33.2952 20.984 33.353 21.0766 33.3996 21.1535C33.4894 21.2489 33.5803 21.2871 33.6813 21.2871ZM33.6813 20.658C33.6993 20.658 33.7189 20.6703 33.7352 20.6922C33.7722 20.7309 33.7958 20.7652 33.7958 20.8437C33.7958 20.91 33.7801 20.9543 33.7385 21.0059C33.7093 21.0323 33.6375 21.0317 33.601 20.9958C33.578 20.9509 33.5522 20.9055 33.5522 20.8437C33.5522 20.782 33.5763 20.7405 33.6123 20.6928C33.6313 20.6675 33.6504 20.658 33.6813 20.658Z" fill="white"/>
<path d="M27.8735 21.0444C27.961 21.0444 28.0519 21.0045 28.1215 20.9355C28.2023 20.8541 28.245 20.7385 28.245 20.601C28.245 20.4764 28.2001 20.3603 28.1221 20.2817C28.0065 20.1246 27.7253 20.1257 27.5985 20.2952C27.5654 20.3401 27.4868 20.4596 27.4868 20.601C27.4868 20.7497 27.5564 20.8654 27.5985 20.9209C27.6815 21.0062 27.7725 21.0444 27.8729 21.0444H27.8735ZM27.8735 20.4153C27.8987 20.4153 27.9184 20.4366 27.9285 20.4501C27.97 20.4938 27.9885 20.5455 27.9885 20.601C27.9885 20.6678 27.9711 20.7222 27.9403 20.7531C27.8875 20.8053 27.8308 20.7901 27.7938 20.7531C27.7831 20.7368 27.745 20.6751 27.745 20.601C27.745 20.5488 27.7764 20.4882 27.8056 20.4495C27.8241 20.4248 27.8432 20.4153 27.874 20.4153H27.8735Z" fill="white"/>
<path d="M29.5616 21.845C29.6654 21.845 29.7732 21.7912 29.836 21.7081C29.8972 21.6262 29.9331 21.5123 29.9331 21.4017C29.9331 21.2788 29.8989 21.1654 29.8366 21.0818C29.6806 20.9241 29.455 20.9264 29.3135 21.0678C29.2327 21.1486 29.1901 21.2642 29.1901 21.4017C29.1901 21.5268 29.2355 21.643 29.3135 21.7216C29.3663 21.7945 29.4611 21.845 29.5616 21.845ZM29.5616 21.2159C29.5835 21.2159 29.6228 21.2305 29.643 21.2502C29.6587 21.2737 29.6761 21.336 29.6761 21.4017C29.6761 21.4567 29.6581 21.5167 29.6306 21.5538C29.5941 21.602 29.5397 21.597 29.5077 21.5538C29.4656 21.5094 29.4471 21.4584 29.4471 21.4017C29.4471 21.3349 29.4645 21.281 29.4954 21.2496C29.5161 21.2288 29.5419 21.2159 29.5622 21.2159H29.5616Z" fill="white"/>
<path d="M31.3203 22.3881C31.4213 22.3881 31.5122 22.35 31.5835 22.2787C31.6363 22.2102 31.7064 22.0952 31.7064 21.9448C31.7064 21.7944 31.6284 21.6833 31.5947 21.6384C31.4696 21.47 31.1985 21.4532 31.0605 21.6389C30.9943 21.7029 30.9494 21.8196 30.9494 21.9442C30.9494 22.0823 30.992 22.1979 31.0728 22.2787C31.1413 22.3477 31.2316 22.3876 31.3203 22.3876V22.3881ZM31.3203 21.759C31.3512 21.759 31.3703 21.7686 31.3888 21.7927C31.418 21.8314 31.4494 21.8915 31.4494 21.9448C31.4494 22.02 31.4118 22.0806 31.3893 22.1104C31.3714 22.1249 31.308 22.1496 31.2547 22.0969C31.2232 22.066 31.2058 22.0116 31.2058 21.9448C31.2058 21.8887 31.2238 21.8376 31.2541 21.8073C31.2833 21.7708 31.3024 21.759 31.3203 21.759Z" fill="white"/>
<path d="M32.6799 23.0882C32.7803 23.0882 32.8757 23.0377 32.9403 22.9502C33.0065 22.8862 33.0514 22.7695 33.0514 22.6449C33.0514 22.5068 33.0087 22.3912 32.9279 22.3104C32.7815 22.1634 32.5525 22.1757 32.4172 22.3104C32.3364 22.3918 32.2943 22.5074 32.2943 22.6449C32.2943 22.7695 32.3387 22.8856 32.4172 22.9642C32.4734 23.0405 32.5676 23.0882 32.6804 23.0882H32.6799ZM32.6799 22.4591C32.7001 22.4591 32.7259 22.472 32.7461 22.4922C32.7775 22.5231 32.7949 22.5775 32.7949 22.6443C32.7949 22.7004 32.777 22.7515 32.7467 22.7818C32.7175 22.8183 32.6984 22.8301 32.6799 22.8301C32.649 22.8301 32.6299 22.8205 32.6114 22.7958C32.5699 22.7521 32.5514 22.7004 32.5514 22.6443C32.5514 22.577 32.5688 22.5231 32.5996 22.4922C32.6221 22.4698 32.6484 22.4591 32.6799 22.4591Z" fill="white"/>
<path d="M27.0009 22.6743C27.1131 22.6743 27.2085 22.6266 27.2758 22.5368C27.309 22.493 27.387 22.374 27.387 22.2309C27.387 22.0811 27.3168 21.9655 27.2753 21.9105C27.1215 21.7517 26.9021 21.7483 26.7528 21.8965C26.672 21.9778 26.6293 22.0934 26.6293 22.2309C26.6293 22.3364 26.663 22.4375 26.7264 22.5222L26.7528 22.5503C26.8067 22.6238 26.9015 22.6737 27.0009 22.6737V22.6743ZM27.0009 22.0452C27.0328 22.0452 27.0587 22.0558 27.0811 22.0783C27.0918 22.0946 27.1299 22.1557 27.1299 22.2304C27.1299 22.2831 27.0991 22.3432 27.0699 22.3813C27.0396 22.4212 26.9908 22.4414 26.9459 22.3813L26.92 22.3538C26.9021 22.3269 26.8864 22.2809 26.8864 22.2304C26.8864 22.1636 26.9038 22.1097 26.9352 22.0783C26.9554 22.0581 26.9818 22.0452 27.0014 22.0452H27.0009Z" fill="white"/>
<path d="M28.7028 23.4605C28.7904 23.4605 28.8813 23.4207 28.9509 23.3511C29.0317 23.2703 29.0743 23.1546 29.0743 23.0166C29.0743 22.892 29.0294 22.7747 28.9509 22.6967C28.897 22.6232 28.8022 22.5732 28.7028 22.5732C28.5911 22.5732 28.4963 22.6209 28.4284 22.7102C28.3947 22.7556 28.3167 22.8752 28.3167 23.0166C28.3167 23.1653 28.3863 23.2809 28.4278 23.3365C28.512 23.4218 28.6024 23.4599 28.7028 23.4599V23.4605ZM28.7028 22.8314C28.7281 22.8314 28.7477 22.8527 28.7578 22.8662C28.7994 22.91 28.8179 22.961 28.8179 23.0172C28.8179 23.0845 28.8005 23.1384 28.7696 23.1692C28.7152 23.2237 28.6602 23.208 28.622 23.1692C28.6119 23.1535 28.5738 23.0918 28.5738 23.0172C28.5738 22.965 28.6052 22.9044 28.6344 22.8656C28.6529 22.8409 28.6714 22.8314 28.7028 22.8314Z" fill="white"/>
<path d="M30.4629 24.0177C30.5628 24.0177 30.6576 23.9677 30.7227 23.8802C30.794 23.8117 30.8339 23.7067 30.8339 23.5743C30.8339 23.4492 30.7985 23.3493 30.7194 23.2511C30.5583 23.0866 30.3282 23.1119 30.1991 23.241C30.1385 23.3347 30.0903 23.4323 30.0903 23.5743C30.0903 23.6933 30.1223 23.7937 30.1879 23.8807C30.2508 23.9649 30.3557 24.0177 30.4623 24.0177H30.4629ZM30.4629 23.3885C30.4825 23.3885 30.5084 23.4015 30.5286 23.4222C30.5617 23.4643 30.5774 23.5081 30.5774 23.5743C30.5774 23.6534 30.5544 23.6871 30.5291 23.7118C30.468 23.7892 30.4236 23.7662 30.3944 23.7258C30.3624 23.6837 30.3484 23.6366 30.3484 23.5737C30.3484 23.4997 30.3692 23.4514 30.4017 23.3975C30.4017 23.4054 30.4393 23.388 30.4635 23.388L30.4629 23.3885Z" fill="white"/>
<path d="M31.8076 24.7041C31.9002 24.7041 32.0034 24.6609 32.0702 24.5952C32.1448 24.4976 32.1791 24.3836 32.1791 24.2607C32.1791 24.1502 32.1432 24.0362 32.0826 23.9549C31.958 23.7904 31.6802 23.7775 31.5472 23.9549C31.4809 24.0194 31.436 24.1356 31.436 24.2607C31.436 24.3988 31.4787 24.5144 31.5595 24.5952C31.628 24.6642 31.7189 24.7041 31.8076 24.7041ZM31.8076 24.075C31.8255 24.075 31.8586 24.0856 31.8766 24.1092C31.9035 24.1457 31.9215 24.2052 31.9215 24.2607C31.9215 24.3264 31.9041 24.3887 31.876 24.4268C31.862 24.4364 31.7834 24.4555 31.7413 24.4128C31.7099 24.3819 31.6925 24.3275 31.6925 24.2607C31.6925 24.204 31.7105 24.153 31.7408 24.1232C31.7694 24.0873 31.789 24.075 31.8076 24.075Z" fill="white"/>
<path d="M26.4857 24.3609C26.5665 24.3609 26.6479 24.3289 26.7349 24.2632L26.7601 24.238C26.8236 24.1544 26.8578 24.041 26.8578 23.9175C26.8578 23.7941 26.8258 23.6981 26.7601 23.6117C26.5749 23.4214 26.3869 23.4332 26.2236 23.5988C26.1512 23.6925 26.1148 23.807 26.1148 23.9181C26.1148 24.0416 26.149 24.1555 26.2124 24.2385L26.2377 24.2638C26.3247 24.3295 26.406 24.3614 26.4863 24.3614L26.4857 24.3609ZM26.5637 24.0696C26.4795 24.128 26.4924 24.128 26.4083 24.0696C26.3853 24.0315 26.3712 23.9759 26.3712 23.9175C26.3712 23.8625 26.3892 23.8031 26.4167 23.7666C26.456 23.7312 26.5042 23.7183 26.566 23.7795C26.5862 23.8081 26.6002 23.8547 26.6002 23.9175C26.6002 23.9759 26.5867 24.0315 26.5632 24.0696H26.5637Z" fill="white"/>
<path d="M28.1738 25.1616C28.2866 25.1616 28.382 25.1139 28.4488 25.0235C28.4819 24.9797 28.5599 24.8608 28.5599 24.7182C28.5599 24.5678 28.4898 24.4528 28.4483 24.3978C28.2945 24.2395 28.0751 24.2356 27.9258 24.3837C27.845 24.4651 27.8029 24.5807 27.8029 24.7182C27.8029 24.8428 27.8472 24.959 27.9252 25.0375C27.9791 25.1116 28.0739 25.1616 28.1738 25.1616ZM28.1738 24.5325C28.2058 24.5325 28.2316 24.5431 28.2541 24.5656C28.2647 24.5819 28.3029 24.643 28.3029 24.7177C28.3029 24.7704 28.272 24.8305 28.2429 24.8686C28.212 24.909 28.1632 24.9276 28.1194 24.8686C28.0779 24.8249 28.0593 24.7732 28.0593 24.7171C28.0593 24.6498 28.0767 24.5959 28.1076 24.565C28.1278 24.5448 28.1542 24.5319 28.1738 24.5319V24.5325Z" fill="white"/>
<path d="M29.9479 25.7051C30.0361 25.7051 30.1264 25.6653 30.196 25.5962C30.2768 25.5149 30.3195 25.3993 30.3195 25.2623C30.3195 25.1557 30.2869 25.0575 30.2224 24.9711L30.196 24.9424C30.1421 24.8689 30.0473 24.819 29.9479 24.819C29.8363 24.819 29.7414 24.8667 29.6735 24.9559C29.6398 25.0014 29.5618 25.1209 29.5618 25.2623C29.5618 25.4105 29.6314 25.5266 29.673 25.5822C29.7571 25.6681 29.8475 25.7057 29.9479 25.7057V25.7051ZM29.9479 25.076C29.9732 25.076 29.9928 25.0973 30.0029 25.1108L30.0288 25.1383C30.0473 25.1658 30.0624 25.2107 30.0624 25.2618C30.0624 25.3285 30.045 25.3824 30.0136 25.4138C29.9597 25.4672 29.9047 25.4514 29.8666 25.4138C29.8565 25.3981 29.8183 25.3364 29.8183 25.2623C29.8183 25.2096 29.8497 25.1495 29.8789 25.1102C29.8974 25.0855 29.9165 25.076 29.9474 25.076H29.9479Z" fill="white"/>
<path d="M31.2924 26.4052C31.3918 26.4052 31.4866 26.3553 31.5523 26.2683C31.6196 26.2026 31.6639 26.0865 31.6639 25.9624C31.6639 25.8249 31.6213 25.7093 31.541 25.6285C31.3906 25.4793 31.1645 25.4938 31.0298 25.6285C30.9546 25.7267 30.9203 25.8407 30.9203 25.963C30.9203 26.073 30.9568 26.1869 31.0174 26.2689C31.0853 26.3587 31.1802 26.4064 31.2919 26.4064L31.2924 26.4052ZM31.2924 25.7761C31.3126 25.7761 31.3379 25.789 31.3592 25.8104C31.3901 25.8412 31.4075 25.8951 31.4075 25.9624C31.4075 26.0186 31.3895 26.0696 31.3587 26.1005C31.3104 26.16 31.2571 26.1594 31.2234 26.114C31.1959 26.0769 31.1779 26.0174 31.1779 25.963C31.1779 25.8973 31.1953 25.8356 31.224 25.7969C31.2352 25.7879 31.261 25.7772 31.2924 25.7772V25.7761Z" fill="white"/>
<path d="M25.5559 26.0194C25.644 26.0194 25.7343 25.9796 25.8039 25.9105C25.8926 25.8006 25.9274 25.7007 25.9274 25.5761C25.9274 25.4442 25.887 25.3398 25.8045 25.2562C25.6894 25.1002 25.4088 25.1002 25.2814 25.2697C25.2287 25.3398 25.1697 25.4375 25.1697 25.5761C25.1697 25.7147 25.2264 25.8062 25.2724 25.8825L25.2938 25.91C25.3656 25.9813 25.456 26.0189 25.5564 26.0189L25.5559 26.0194ZM25.5559 25.3903C25.5811 25.3903 25.6007 25.4116 25.6109 25.4245C25.6462 25.4616 25.6709 25.4969 25.6709 25.5761C25.6709 25.6417 25.6552 25.6861 25.6131 25.7394C25.5856 25.7624 25.5211 25.7663 25.4857 25.7371C25.452 25.6805 25.4273 25.6339 25.4273 25.5761C25.4273 25.5183 25.4515 25.4728 25.488 25.424C25.5065 25.3993 25.5255 25.3903 25.5564 25.3903H25.5559Z" fill="white"/>
<path d="M27.2438 26.8201C27.3555 26.8201 27.4503 26.7724 27.5182 26.6832C27.5519 26.6377 27.6299 26.5182 27.6299 26.3773C27.6299 26.2286 27.5603 26.113 27.5188 26.0574C27.3611 25.8969 27.1444 25.8958 26.9957 26.0434C26.9149 26.1242 26.8723 26.2398 26.8723 26.3779C26.8723 26.503 26.9172 26.6198 26.9957 26.6978C27.0496 26.7713 27.1444 26.8212 27.2438 26.8212V26.8201ZM27.2438 26.191C27.2758 26.191 27.3016 26.2017 27.3246 26.2247C27.3347 26.2404 27.3729 26.3021 27.3729 26.3768C27.3729 26.429 27.3414 26.4896 27.3122 26.5283C27.2786 26.5732 27.2107 26.5575 27.1888 26.5283C27.1473 26.4845 27.1287 26.4334 27.1287 26.3773C27.1287 26.31 27.1461 26.2561 27.177 26.2252C27.1983 26.2045 27.2236 26.1916 27.2438 26.1916V26.191Z" fill="white"/>
<path d="M29.0033 27.3626C29.1038 27.3626 29.1952 27.3244 29.2665 27.2531C29.3193 27.1847 29.3894 27.0696 29.3894 26.9192C29.3894 26.7688 29.3114 26.6577 29.2777 26.6134C29.1515 26.4439 28.8826 26.4282 28.7435 26.6134C28.6772 26.6773 28.6318 26.7941 28.6318 26.9192C28.6318 27.0573 28.6744 27.1729 28.7553 27.2537C28.8237 27.3227 28.9146 27.3631 29.0027 27.3631L29.0033 27.3626ZM29.0033 26.7335C29.0342 26.7335 29.0532 26.743 29.0718 26.7677C29.101 26.8064 29.1324 26.8665 29.1324 26.9192C29.1324 26.9944 29.0948 27.055 29.0723 27.0848C29.0544 27.0999 28.9898 27.1252 28.9376 27.0713C28.9062 27.0399 28.8888 26.986 28.8888 26.9192C28.8888 26.8631 28.9068 26.812 28.9371 26.7817C28.9657 26.7458 28.9853 26.7335 29.0033 26.7335Z" fill="white"/>
<path d="M30.3624 28.0633C30.4623 28.0633 30.5572 28.0128 30.6223 27.9258C30.6885 27.8618 30.7334 27.7451 30.7334 27.62C30.7334 27.4819 30.6907 27.3668 30.6099 27.286C30.4629 27.1379 30.2328 27.1519 30.0992 27.286C30.0465 27.3545 29.9763 27.4695 29.9763 27.6194C29.9763 27.7692 30.0543 27.8815 30.088 27.9258C30.1548 28.0156 30.2496 28.0627 30.3624 28.0627V28.0633ZM30.3624 27.4342C30.3821 27.4342 30.4079 27.4471 30.4281 27.4679C30.4595 27.4987 30.4769 27.5532 30.4769 27.62C30.4769 27.6766 30.459 27.7277 30.4287 27.7574C30.4 27.7934 30.3804 27.8057 30.3624 27.8057C30.3316 27.8057 30.3125 27.7962 30.294 27.7715C30.2642 27.7328 30.2334 27.6727 30.2334 27.6194C30.2334 27.5448 30.271 27.4836 30.2934 27.4538C30.3046 27.4443 30.331 27.4336 30.3624 27.4336V27.4342Z" fill="white"/>
<path d="M64.7914 59.941L65.4676 59.9292C66.3459 59.914 67.1372 59.8994 67.9302 59.872L68.1171 59.8658L67.8095 59.1396L66.5895 59.1957L64.7908 59.941H64.7914ZM67.7343 59.6211C67.2141 59.6379 66.6911 59.6497 66.1416 59.6604L66.6669 59.4426L67.6423 59.4039L67.7343 59.6211Z" fill="white"/>
<path d="M88.1051 70.5282L88.3391 68.5263L88.2156 68.5078C87.9289 68.4652 87.6404 68.45 87.3609 68.436C86.7633 68.4225 86.2262 68.376 85.6987 68.2935L85.6448 68.285L84.2878 69.3064L84.8159 69.4456C85.7015 69.6824 86.6684 69.9989 87.9508 70.4715L88.1045 70.5276L88.1051 70.5282ZM88.0546 68.7463L87.8873 70.174C86.6729 69.7301 85.7413 69.4271 84.8832 69.1975L84.8675 69.1936L85.7133 68.5567C86.2352 68.6358 86.7666 68.6801 87.3362 68.6925C87.5792 68.7054 87.8194 68.7177 88.0551 68.7463H88.0546Z" fill="white"/>
<path d="M95.2283 64.8456C96.326 63.1407 97.2823 61.3937 98.0697 59.654L98.1735 59.4244L97.9265 59.4749C93.3219 60.4194 88.5152 61.213 83.6378 61.8325L83.5727 61.6249C88.5567 60.9952 93.4846 60.1787 98.2212 59.1977L98.2863 59.1842L98.3127 59.1236C98.9092 57.765 99.4597 56.3036 99.948 54.7799L100.024 54.5442L99.7875 54.6177C96.2284 55.7216 90.3593 57.2644 82.5783 58.3581L82.5137 58.1494C86.2968 57.6269 89.9552 56.945 93.3904 56.1234L93.4919 56.0993L92.7826 30.9048L92.6193 30.9581C90.8352 31.5384 89.1179 32.0373 89.0416 32.0558C88.9922 32.0698 88.9372 32.0384 88.9092 31.989L83.5761 21.5153C83.562 21.4749 83.5935 21.4014 83.6479 21.3739L90.7926 18.3754C90.8414 18.3569 90.9149 18.3743 90.9418 18.4282C90.9935 18.5308 96.1593 29.0741 96.2688 29.4698C96.2323 29.5405 95.8529 29.8654 93.0901 30.8009L93.0003 30.8312L93.0026 30.9261L93.6934 56.06L93.8477 56.023C95.9242 55.5218 97.9479 54.9646 100.035 54.3192L100.101 54.299L100.121 54.2328C101.292 50.2611 101.885 46.1896 101.885 42.131C101.886 18.9001 82.9683 0 59.7155 0C56.0295 0 52.3559 0.482633 48.7962 1.43387L48.863 1.68248C52.4008 0.736857 56.0526 0.257591 59.7155 0.257591C82.8269 0.257591 101.629 19.0415 101.629 42.131C101.629 46.1425 101.045 50.1674 99.8936 54.0941C97.8867 54.7126 95.9376 55.2502 93.942 55.7357L93.2624 31.0142C96.3709 29.9563 96.5763 29.6393 96.5174 29.4047C96.3995 28.9776 91.2208 18.4085 91.1708 18.312C91.0883 18.1453 90.879 18.0673 90.6972 18.1358L83.5402 21.1393C83.3611 21.2285 83.2753 21.4418 83.3404 21.6175L88.6824 32.1097C88.7728 32.2685 88.9473 32.3476 89.1045 32.3038L89.1033 32.3016C89.3761 32.2343 91.1394 31.705 92.5356 31.2544L93.2293 55.8962C89.7863 56.7161 86.1194 57.3946 82.328 57.9137L82.1776 57.9344L82.3981 58.6416L82.5059 58.6264C90.187 57.5534 96.0207 56.0415 99.627 54.9348C99.1679 56.3429 98.6561 57.6948 98.1039 58.9575C93.3455 59.9413 88.3951 60.7584 83.3875 61.3875L83.2349 61.4066L83.456 62.1131L83.5632 62.0997C88.3962 61.488 93.1608 60.7068 97.7301 59.7763C96.968 61.4285 96.0544 63.0851 95.0117 64.7048L95.2283 64.8439V64.8456Z" fill="#FFE200"/>
<path d="M42.2372 80.4888L42.3484 80.257C41.8769 80.032 41.3926 79.8014 40.9117 79.5589C42.8052 79.5073 44.752 79.4562 46.6438 79.4298L46.7908 79.4276L46.6803 78.6986L46.5675 78.7008C44.2621 78.7435 41.9151 78.8007 39.5917 78.8714C39.2376 78.6745 38.8717 78.4646 38.4822 78.2339C41.1356 78.18 43.7895 78.1267 46.4429 78.0858L46.5899 78.0835L46.4799 77.3551L37.3222 77.5279C34.0667 75.461 31.1227 72.9749 28.567 70.133C34.4882 70.8216 40.4835 71.3037 46.3918 71.5674L46.5186 71.573L46.563 70.844L46.4322 70.8384C40.4167 70.5769 34.1666 70.0651 27.8531 69.3153C27.2992 68.6632 26.8379 68.0919 26.4204 67.5402C32.9017 68.5369 39.6675 69.257 46.5332 69.6807L46.6578 69.688L46.724 68.9601L46.5916 68.9522C39.6176 68.5319 32.6227 67.7799 25.7997 66.717C23.923 64.1259 22.3466 61.3362 21.112 58.4219C29.2931 60.6049 37.9255 62.1033 46.7723 62.8755L46.912 62.8873V62.1572L46.7947 62.1465C37.8329 61.3564 29.0737 59.8142 20.7595 57.5643C20.2763 56.3398 19.8796 55.1966 19.5496 54.081C28.6461 56.5166 37.8088 58.2153 46.7847 59.1295L46.9266 59.1441V58.4134L46.8116 58.4016C40.7007 57.7776 34.4382 56.7753 28.196 55.4222L26.6965 29.7035C28.1522 30.1772 29.7943 30.6671 30.0564 30.7311L30.0553 30.7333C30.2236 30.781 30.3959 30.7002 30.4773 30.538L35.8126 20.0598C35.8502 19.9605 35.8474 19.8617 35.8109 19.7748C35.7728 19.6838 35.7004 19.6131 35.6134 19.5806L28.4525 16.5664C28.2661 16.4962 28.072 16.5709 27.9867 16.7415C27.9345 16.8459 22.7619 27.4099 22.6423 27.8291C22.5969 28.0115 22.5217 28.3089 25.9613 29.46L27.4485 55.264C24.4713 54.5922 21.8101 53.9373 19.3229 53.2639C18.3234 49.6587 17.8166 45.9144 17.8166 42.1324C17.8166 31.849 21.5895 21.9584 28.4412 14.2834L28.2487 14.1122C21.3555 21.8344 17.5596 31.7856 17.5596 42.1324C17.5596 45.9626 18.0764 49.7547 19.0944 53.4036L19.1141 53.4737L19.1848 53.4928C21.7427 54.1865 24.4814 54.8605 27.5585 55.5524L27.7251 55.5895L26.2082 29.2703L26.1252 29.2428C23.1648 28.2567 22.9117 27.9279 22.891 27.8723C22.9959 27.53 27.9609 17.3745 28.2168 16.856C28.2465 16.7965 28.311 16.7892 28.3571 16.8054L35.5185 19.8202C35.5444 19.8303 35.5629 19.8494 35.5735 19.8747C35.5848 19.9016 35.5864 19.9325 35.5769 19.9571L30.2472 30.4224C30.2152 30.4864 30.1613 30.4965 30.1254 30.4858L30.0901 30.4808C30.0401 30.4651 28.3408 29.9723 26.5966 29.4005L26.417 29.3415L26.4277 29.5301L27.9496 55.6321L28.045 55.6529C34.2884 57.0093 40.5536 58.0167 46.6685 58.6458V58.859C37.678 57.9353 28.5024 56.2242 19.3941 53.7734L19.1736 53.7145L19.237 53.9339C19.5872 55.1456 20.0143 56.3841 20.5429 57.7198L20.5665 57.7798L20.6288 57.7967C28.9407 60.0505 37.696 61.5966 46.6544 62.3935V62.6073C37.7802 61.825 29.1237 60.3109 20.9245 58.1059L20.672 58.038L20.7724 58.2799C22.0363 61.3165 23.6677 64.2207 25.6223 66.9123L25.6538 66.9555L25.7065 66.9633C32.5111 68.0251 39.4862 68.7777 46.4423 69.2014L46.4232 69.4163C39.498 68.9859 32.6761 68.253 26.1471 67.2383L25.8373 67.1901L26.0236 67.442C26.5012 68.088 27.0309 68.7491 27.6881 69.5213L27.7212 69.56L27.7712 69.5656C34.0622 70.3137 40.2916 70.8266 46.2891 71.0904L46.2762 71.3053C40.3022 71.036 34.2413 70.5427 28.2594 69.8389L27.9244 69.7996L28.1483 70.0522C30.7809 73.0265 33.8316 75.6221 37.2167 77.767L37.2493 77.7878L46.2588 77.6183L46.2914 77.8327C43.537 77.8753 40.7815 77.9314 38.0271 77.9881L37.5804 77.9971L37.9637 78.2272C38.5154 78.5583 39.0176 78.849 39.498 79.1156L39.5289 79.133L39.5642 79.1318C41.8601 79.0617 44.179 79.005 46.4592 78.9624L46.4923 79.1767C44.514 79.2054 42.4791 79.2609 40.511 79.3142L39.906 79.3311L40.3449 79.56C40.9762 79.89 41.6171 80.1959 42.2372 80.4911V80.4888Z" fill="#FF0094"/>
<path d="M58.3537 75.1867L58.517 75.1833C62.9954 75.0975 67.5613 75.0251 71.9769 74.9544L72.698 74.9431L72.0178 74.7046C71.6081 74.561 71.2237 74.4341 70.9111 74.3309L70.6569 74.2467C70.048 74.0637 69.5295 73.8348 69.0687 73.5452L69.035 73.5239L67.6068 73.5822C64.564 73.7035 61.7299 73.7685 58.943 73.782H58.7022L58.677 73.8774C58.5849 74.2192 58.4789 74.6233 58.3896 75.0273L58.3543 75.1867H58.3537ZM71.2344 74.7091C67.1034 74.7748 62.8534 74.8433 58.6764 74.9235C58.7477 74.6154 58.8262 74.3107 58.8992 74.0402H58.9435C61.7344 74.0261 64.5712 73.9605 67.6174 73.8398L68.966 73.7848C69.438 74.0772 69.9661 74.3084 70.5795 74.4925L70.8309 74.5761C70.9549 74.6171 71.0907 74.6614 71.2344 74.7102V74.7091Z" fill="white"/>
<path d="M60.8553 67.3928H60.9614C63.4576 67.376 65.7142 67.3294 67.8597 67.2491L67.9029 67.2402L69.6555 66.5359L67.9074 65.3326L67.8653 65.3343C65.465 65.4196 63.0261 65.4628 60.6168 65.4628H60.4586L60.8548 67.3939L60.8553 67.3928ZM67.8277 66.9927C65.7215 67.0712 63.5076 67.1178 61.0652 67.1347L60.7751 65.7193C63.1215 65.7176 65.4948 65.675 67.8322 65.5925L69.1156 66.4758L67.8282 66.9927H67.8277Z" fill="#FFE200"/>
<path d="M25.3508 52.7605L25.3413 52.5887L24.0775 30.8731L23.9961 30.845C23.6465 30.7243 23.294 30.5852 22.9186 30.4202L22.8428 30.3871C22.5162 30.244 22.1778 30.0958 21.8955 29.9033L21.8574 29.8809C21.8377 29.8713 21.8164 29.8663 21.7939 29.8663H21.6997L21.671 29.9561C20.414 33.9299 19.777 38.0267 19.777 42.1324C19.777 45.2802 20.158 48.46 20.9106 51.5836L20.9286 51.6577L21.0021 51.6773C22.2872 52.0219 23.6549 52.3637 25.183 52.7217L25.3508 52.761V52.7605ZM23.83 31.0594L25.0742 52.431C23.6453 52.0943 22.3568 51.7722 21.1435 51.4478C20.4078 48.3679 20.034 45.2336 20.034 42.1313C20.034 38.1064 20.6508 34.0899 21.8669 30.1901C22.1408 30.359 22.4444 30.492 22.739 30.6216L22.8148 30.6548C23.1678 30.8102 23.5011 30.9427 23.8305 31.0594H23.83Z" fill="white"/>
<path d="M95.8401 53.2196L95.9978 53.1775L95.9647 53.0529L96.0074 53.1747C96.7369 52.9783 97.4912 52.7751 98.2202 52.5473L98.2881 52.526L98.306 52.4581C99.2107 49.0852 99.6692 45.6109 99.6692 42.1314C99.6692 38.382 99.1377 34.6427 98.0905 31.0157L98.0266 30.7929L97.8717 30.9658C97.2628 31.6448 96.1112 32.0668 95.3485 32.3457L95.2615 32.3777L95.2638 32.4703L95.8401 53.2196ZM98.0754 52.3223C97.4216 52.5254 96.7459 52.7089 96.0882 52.8863L95.523 32.5551C96.2459 32.2902 97.2571 31.9046 97.9037 31.2986C98.9043 34.8358 99.4116 38.4785 99.4116 42.1303C99.4116 45.5637 98.9621 48.9921 98.0754 52.3217V52.3223Z" fill="#E10585"/>
<path d="M59.7156 82.046C61.9581 82.046 64.1737 81.867 66.3024 81.5146L66.2827 81.2592C64.7035 81.2435 63.0738 81.2357 61.3009 81.2357C60.1258 81.2357 58.9484 81.239 57.7699 81.2452H57.6313L57.6425 81.3844C57.6487 81.4641 57.652 81.5432 57.6554 81.6212C57.6593 81.7121 57.6632 81.8013 57.6711 81.8861L57.6812 81.9978L57.7929 82.0028C58.4428 82.0314 59.0898 82.046 59.7156 82.046ZM64.5632 81.5028C62.9778 81.6925 61.3537 81.7884 59.7156 81.7884C59.1302 81.7884 58.5264 81.7755 57.9186 81.7503C57.9163 81.7043 57.9141 81.6571 57.9124 81.61C57.9107 81.5741 57.9096 81.5381 57.9074 81.5017C59.0404 81.4961 60.1718 81.4927 61.3009 81.4927C62.4301 81.4927 63.5188 81.4961 64.5632 81.5028Z" fill="white"/>
<path d="M43.2329 14.0002L44.1264 13.3722C44.4075 13.1645 44.7611 12.9838 45.2426 12.8014L45.32 12.7722L45.3257 12.6897C45.3498 12.3115 45.4082 11.908 45.5092 11.4209L45.526 11.3389L45.3307 11.1992L45.2976 11.1958C44.4984 11.1044 43.6768 10.7901 42.9215 10.2872L42.8642 10.2491L42.115 10.5673L42.1577 10.6823C42.2952 11.0522 42.3939 11.4377 42.4517 11.8289C42.459 11.8794 42.4697 11.9344 42.4809 11.9888C42.4916 12.0416 42.5023 12.0938 42.509 12.1426L42.5544 12.3396L42.6285 12.5657C42.7537 12.981 42.9394 13.4339 43.1656 13.8711L43.2335 14.0018L43.2329 14.0002ZM45.0742 12.5899C44.609 12.7711 44.2582 12.9541 43.976 13.1628L43.3272 13.6191C43.1381 13.2375 42.9821 12.8486 42.8732 12.4866L42.8014 12.2683L42.761 12.0938C42.7554 12.0511 42.7441 11.9944 42.7329 11.9366C42.7228 11.8861 42.7127 11.8362 42.7054 11.7896C42.6515 11.4214 42.5623 11.0578 42.4405 10.707L42.8367 10.5387C43.5988 11.0348 44.4261 11.3479 45.2342 11.4467L45.2398 11.4506C45.1534 11.8794 45.1006 12.2458 45.0742 12.5904V12.5899Z" fill="white"/>
<path d="M36.4885 17.8263L36.3752 17.2842C36.2983 16.9261 36.2315 16.6174 36.1978 16.2437L36.186 16.1079L36.0514 16.1275C35.915 16.1477 35.8044 16.1629 35.7107 16.1763C35.3151 16.2308 35.2073 16.2459 34.7258 16.4081L34.8257 15.724L34.7236 15.6898C34.6416 15.6623 34.5647 15.6213 34.4839 15.5781C34.4502 15.5601 34.4166 15.5422 34.3829 15.5253C33.7235 15.1589 33.2431 14.5107 32.9603 13.601L32.9215 13.4753L31.3878 14.0056C31.0404 14.3524 30.6975 14.7094 30.3681 15.0674L30.244 15.2021L36.4885 17.8263ZM35.9559 16.4014C35.9935 16.7342 36.057 17.0288 36.1237 17.338L36.1367 17.3986L34.5608 16.7364L34.6102 16.719C35.2455 16.4996 35.3123 16.4906 35.7466 16.4306C35.8078 16.4221 35.8774 16.4126 35.9559 16.4014ZM34.5406 15.8946L34.4256 16.6803L30.6818 15.1067C30.9635 14.8042 31.2536 14.5023 31.5477 14.2088L32.7543 13.8025C33.0624 14.7127 33.5692 15.3682 34.2622 15.7532L34.3616 15.8054C34.4188 15.8363 34.4772 15.8677 34.54 15.8952L34.5406 15.8946Z" fill="white"/>
<path d="M46.727 56.4221L46.7618 56.3284C46.8011 56.2234 46.8533 56.1191 46.9049 56.0136L46.9381 55.9468L46.8483 55.784L45.9964 55.5775L46.7618 54.6375L46.7674 54.6044C46.8707 54.0101 47.2518 53.4769 47.8393 53.1037L48.18 52.8635C48.5723 52.2412 48.8355 50.8432 48.9775 50.0923L49.0386 49.7713C49.1728 49.0732 49.3108 48.3509 49.5112 47.6708L52.7442 37.1151L53.3442 44.9557L53.4418 44.9736C53.5844 45 53.7168 45.0522 53.8565 45.1083C55.9184 45.926 56.9156 47.8879 57.3899 49.3891L57.4522 49.5873L57.602 49.443C58.427 48.6484 59.1408 48.0193 59.7149 47.5142C62.5613 45.0067 62.503 44.9203 59.4298 40.3785C58.8075 39.4581 58.0324 38.3122 57.1345 36.9288C56.7989 36.4254 56.4055 35.8451 55.9683 35.3024L55.8415 35.1689L54.2965 34.368C52.1 33.249 50.0611 32.6059 47.6755 31.9846L47.5155 31.942C46.1574 31.5794 44.7522 31.2051 43.4979 30.5373C41.6976 29.5855 40.3462 28.1539 39.2462 26.0314C38.5857 24.7777 37.9925 23.2798 37.4813 21.5788L37.3892 21.2713L32.2228 31.4358C31.8221 32.2153 31.028 32.6996 30.1497 32.6996C29.9393 32.6996 29.7294 32.6704 29.5251 32.6137L29.4477 32.5941C29.313 32.557 29.1592 32.515 29.0054 32.4594L28.8219 32.3926L30.0695 53.8153L30.166 53.8355C35.567 54.9585 41.1061 55.8244 46.6288 56.4109L46.7287 56.4216L46.727 56.4221ZM46.6271 55.995C46.6019 56.0467 46.5789 56.0966 46.5581 56.1449C41.1089 55.5635 35.6439 54.7088 30.313 53.6038L29.0992 32.7624C29.1991 32.7933 29.2984 32.8203 29.3977 32.8472L29.4482 32.8595C30.6514 33.1957 31.8979 32.6261 32.4501 31.5525L37.3264 21.9576C37.8208 23.5487 38.3882 24.9578 39.0161 26.1493C40.1414 28.32 41.527 29.7864 43.3756 30.7635C44.6562 31.4447 46.0749 31.8236 47.4476 32.1895L47.6081 32.2321C49.9792 32.8494 52.0029 33.4875 54.1775 34.5953L55.6995 35.3844L55.7697 35.4658C56.1973 35.9961 56.5868 36.5713 56.9184 37.0685C57.8169 38.4536 58.5925 39.6001 59.216 40.5216C61.2187 43.4818 61.328 45.7477 59.5437 47.3194C59.0028 47.7965 58.3372 48.3824 57.5706 49.1142C57.0554 47.5883 56.0172 45.6869 53.9547 44.8687C53.8352 44.821 53.7151 44.7733 53.5855 44.7402L52.8969 35.7368L49.2642 47.5955C49.0605 48.2892 48.9208 49.0176 48.7861 49.7214L48.7249 50.0435C48.5885 50.768 48.336 52.1093 47.9774 52.7025L47.7002 52.8871C47.0632 53.2912 46.6451 53.8726 46.5205 54.5258L45.5401 55.7307L46.6277 55.9945L46.6271 55.995Z" fill="white"/>
<path d="M46.2488 66.9569L46.255 66.8261C46.2645 66.6157 46.2724 66.4052 46.2808 66.1948C46.2965 65.7761 46.3123 65.3552 46.3414 64.9276L46.3499 64.8019L46.2241 64.7906C38.974 64.1385 31.8277 62.9993 24.9849 61.4055L24.6993 61.3387L24.8435 61.594C25.5147 62.7832 26.1814 63.8478 26.8812 64.8496L26.9127 64.8945L26.9671 64.9029C33.1852 65.8547 39.6284 66.5427 46.1186 66.9484L46.2494 66.9563L46.2488 66.9569ZM46.0754 65.0353C46.0513 65.4225 46.0373 65.8047 46.0232 66.1847C46.0171 66.3513 46.0103 66.5174 46.0036 66.6836C39.584 66.2789 33.2116 65.5971 27.0603 64.6571C26.4267 63.7479 25.82 62.7849 25.2117 61.7225C31.9393 63.2759 38.9566 64.3899 46.0754 65.0359V65.0353Z" fill="white"/>
<path d="M37.878 75.5556L37.9184 75.5545C39.2428 75.5264 40.5645 75.5017 41.8844 75.4765C43.2291 75.4512 44.572 75.426 45.915 75.3973L46.0373 75.3951L46.0401 75.2722C46.0474 75 46.0508 74.7278 46.0541 74.4556C46.0575 74.1846 46.0614 73.9135 46.0682 73.6425L46.0715 73.5162L45.9453 73.5106C42.2088 73.3439 38.3315 73.0745 34.4216 72.7103L34.004 72.671L34.3278 72.9376C35.48 73.8849 36.6299 74.734 37.8438 75.5331L37.8769 75.555L37.878 75.5556ZM45.7859 75.1431C44.4839 75.1706 43.1825 75.1953 41.8788 75.2194C40.5718 75.2441 39.2642 75.2688 37.9521 75.2963C36.8735 74.5847 35.8448 73.8327 34.8189 73.0055C38.5464 73.3467 42.2402 73.6009 45.8083 73.762C45.8027 73.9921 45.7999 74.2222 45.7971 74.4523C45.7943 74.6824 45.7909 74.913 45.7859 75.1425V75.1431Z" fill="white"/>
<path d="M86.059 65.8455L88.4565 65.5329C89.7663 65.3499 91.1194 65.1608 92.436 64.961L92.4904 64.9526L92.5224 64.9077C93.0224 64.1938 93.5006 63.4553 93.9433 62.7123L94.0881 62.4704L93.8103 62.5198C90.9359 63.0327 88.0984 63.4749 85.3761 63.8341L85.2099 63.856L85.2739 64.0109C85.5203 64.6041 85.7638 65.1922 86.0192 65.7585L86.0585 65.8455H86.059ZM92.3428 64.7152C91.0447 64.9116 89.7119 65.0979 88.4223 65.2786L86.2156 65.566C85.9956 65.0738 85.7829 64.5642 85.5764 64.0676C88.163 63.7236 90.8528 63.3055 93.5769 62.8228C93.1885 63.4632 92.7738 64.0984 92.3434 64.7152H92.3428Z" fill="white"/>
<path d="M82.5087 55.9127L82.6221 55.8965C85.643 55.4565 88.4209 54.9553 91.1136 54.365L91.2174 54.3419L90.6523 33.8789L90.4895 33.9299C90.2117 34.0175 89.9541 34.0983 89.7095 34.1668L89.6298 34.1875C89.4311 34.2425 89.2212 34.2712 89.0108 34.2712C88.133 34.2712 87.3389 33.7863 86.9383 33.0068L81.5367 22.3821C81.0468 21.1991 81.6063 19.8315 82.7831 19.3314L89.9109 16.3397H90.0136L90.0423 16.1489L90.0114 16.1129C83.2108 8.2045 73.7512 3.32486 63.3751 2.37362L62.9553 2.3349L63.282 2.60147C64.0665 3.24012 64.832 4.12513 65.5593 5.23126C66.6957 6.99231 67.5229 9.07717 67.8866 11.102L68.179 12.6245C70.1432 15.4704 71.6854 19.3976 72.8936 24.632C73.1119 25.5944 73.259 26.9194 73.415 28.3224C73.8853 32.5561 74.4712 37.8258 77.4388 39.3141L82.3572 41.7783L81.0019 42.1409L83.4487 44.2067L82.2129 44.3369L82.2859 44.499C83.9252 48.1334 83.2096 51.8923 82.2932 55.0895L82.2837 55.1237L82.2932 55.1579C82.3224 55.2674 82.3549 55.3762 82.388 55.4857C82.4195 55.5912 82.4515 55.6961 82.4801 55.8016L82.5093 55.9122L82.5087 55.9127ZM90.9542 54.136C88.3328 54.7078 85.6301 55.1955 82.6967 55.6248C82.6759 55.5536 82.6552 55.4829 82.6333 55.4116C82.6047 55.3162 82.576 55.2208 82.5497 55.1259C83.4605 51.9383 84.1665 48.2013 82.5912 44.5557L84.0744 44.3997L81.5429 42.2621L83.0766 41.8524L77.5522 39.0846C74.7097 37.6591 74.1328 32.4663 73.6687 28.2944C73.5121 26.8841 73.3639 25.5518 73.1428 24.5747C71.9295 19.3219 70.38 15.3722 68.4046 12.5011L68.138 11.0554C67.7688 8.99916 66.9286 6.88007 65.7731 5.0904C65.1277 4.10773 64.4498 3.29455 63.7545 2.66825C73.8482 3.69581 83.0413 8.47051 89.7005 16.1483L82.681 19.094C81.3745 19.6496 80.7533 21.1677 81.2965 22.4786L81.324 22.5482L86.7076 33.1241C87.1526 33.9906 88.0348 34.5282 89.0091 34.5287C89.2425 34.5287 89.476 34.4968 89.7027 34.4333L89.76 34.4193C89.9676 34.3615 90.1842 34.2947 90.4025 34.2263L90.9531 54.1354L90.9542 54.136Z" fill="#00C5FF"/>
<path d="M44.4806 53.9326L44.7449 53.5824C45.0507 52.7215 45.6187 51.9718 46.3875 51.4128L46.4229 51.3876L46.4352 51.346C46.5985 50.8022 46.7372 49.9992 46.8112 49.5682L46.8253 49.4862C47.4908 45.9882 48.5375 42.8152 49.6453 39.4564C50.0741 38.1567 50.5168 36.8132 50.9417 35.4349L50.977 35.3198L50.8642 35.2766C49.5903 34.7912 48.3035 34.4382 47.1025 34.1284C45.3454 33.662 43.8863 33.2456 42.4529 32.4947C41.069 31.7489 39.8551 30.7264 38.8461 29.4553L38.8018 29.3997L35.9475 29.7151L38.0649 28.3896L37.9959 28.2801C37.7349 27.8688 37.4599 27.422 37.2147 26.9461L37.0996 26.7217L34.196 32.4364C33.6202 33.5891 32.5607 34.4399 31.289 34.7715L31.1868 34.7985L31.193 34.904L32.1858 51.9729L32.2834 51.9925C36.2573 52.7872 40.3372 53.4371 44.4093 53.9242L44.4811 53.9326H44.4806ZM44.5097 53.4764L44.3672 53.6599C40.3585 53.1784 36.3437 52.5391 32.4305 51.7596L31.4551 34.9938C32.7532 34.6251 33.8318 33.74 34.4255 32.5531L35.7241 29.9996L38.6884 29.6719C39.7104 30.9447 40.9355 31.9711 42.3317 32.7231C43.7903 33.4869 45.2629 33.9073 47.0374 34.3781C48.1963 34.6767 49.4343 35.0162 50.6599 35.4753C50.2469 36.8104 49.8165 38.114 49.4006 39.3762C48.29 42.7434 47.2411 45.9237 46.5722 49.4408L46.5581 49.5249C46.4863 49.9397 46.3555 50.7029 46.2018 51.2316C45.4144 51.8135 44.8308 52.5885 44.5103 53.4769L44.5097 53.4764ZM37.7091 28.3087L36.0642 29.3385L37.1025 27.2857C37.2983 27.646 37.506 27.9877 37.7086 28.3087H37.7091ZM85.0425 53.2844L85.2288 53.2513C86.5106 53.0246 87.6672 52.8175 88.8368 52.5784L88.9423 52.5571L88.7649 45.9063L85.1676 46.2627L85.1951 46.4013C85.6003 48.4704 85.5621 50.7242 85.0806 53.0987L85.043 53.2839L85.0425 53.2844ZM88.6796 52.3483C87.606 52.5661 86.5375 52.7586 85.3691 52.9657C85.8119 50.6782 85.8472 48.5019 85.4735 46.4911L88.5146 46.1903L88.6796 52.3483ZM22.6521 49.1433L22.9091 49.1287L22.3513 39.4649L22.0943 39.4794L22.6521 49.1433ZM88.7627 45.8042L88.6656 42.4667L88.674 42.4712L88.5079 36.472L88.4007 36.4563C86.9124 36.2419 85.6222 35.3266 84.9493 34.0089L79.4877 23.2349C78.523 20.9301 79.6151 18.2604 81.9233 17.2879L86.3501 15.4264L86.2126 15.2911C81.3167 10.4569 75.1917 7.05887 68.5 5.4645L68.2289 5.39996L68.3552 5.64858C69.0589 7.02632 69.5999 8.52361 69.9181 9.97768L69.9406 10.0804L75.5885 10.0001L70.765 12.544L70.8334 12.6602C72.5872 15.6256 73.9677 19.3784 75.0531 24.1317C75.2198 24.8574 75.3595 26.0398 75.5217 27.4086C75.9701 31.2012 76.5846 36.3945 78.4394 37.3272L88.5691 42.4179L85.6794 43.1839L88.7621 45.803L88.7627 45.8042ZM88.4153 42.726L88.4888 45.234L86.2216 43.308L88.4153 42.7266V42.726ZM88.257 36.6948L88.4052 42.0481L78.5561 37.0983C76.8243 36.2278 76.2193 31.1136 75.7782 27.3794C75.6154 26.0028 75.4746 24.8141 75.3051 24.075C74.2276 19.357 72.8594 15.6166 71.1241 12.6462L76.6576 9.72851L70.1471 9.81998C69.8412 8.46412 69.3463 7.07515 68.7099 5.7799C75.1889 7.37427 81.1214 10.6741 85.8944 15.3388L81.8234 17.0511C79.385 18.0786 78.2312 20.8992 79.252 23.3382L79.325 23.4993L84.7198 34.1261C85.4146 35.4871 86.7311 36.4405 88.257 36.6948ZM57.5717 45.1251L58.9966 44.6503L58.9292 44.5173C57.8085 42.3062 56.5503 40.1125 55.2893 38.1724L55.0137 37.7481L55.4593 43.4112L55.5199 43.4449C56.2652 43.8512 56.9364 44.3944 57.5156 45.0606L57.5717 45.1257V45.1251ZM58.6318 44.5011L57.6525 44.8271C57.0823 44.1857 56.4274 43.6565 55.704 43.253L55.3493 38.742C56.4875 40.5266 57.6155 42.5049 58.6318 44.5011Z" fill="#FFE200"/>
<path d="M43.2718 51.5473L43.3161 51.4793C43.6259 51.0018 43.9991 50.5579 44.4262 50.1594L44.4559 50.1319L44.4649 50.0921C45.3791 45.7731 46.0132 43.764 47.0632 40.4355C47.3893 39.4012 47.7552 38.2423 48.1806 36.8505L48.2188 36.7254L48.0925 36.6895C47.6357 36.5593 47.0941 36.4077 46.5424 36.2736C44.7864 35.814 43.0709 35.3285 41.408 34.4548C40.0959 33.751 38.923 32.8503 37.9235 31.779L37.8786 31.7318L37.0015 31.8328L36.1838 33.4384C35.5738 34.6169 34.6658 35.5777 33.5591 36.2158L33.4906 36.2551L33.4951 36.3348L34.3021 50.1308L34.4014 50.1493C37.2119 50.6723 40.1694 51.1393 43.191 51.5372L43.2712 51.5478L43.2718 51.5473ZM44.2208 49.9989C43.8111 50.3856 43.4497 50.8132 43.1449 51.2711C40.1913 50.8805 37.2995 50.4243 34.5479 49.9142L33.7572 36.3976C34.8751 35.7349 35.7926 34.7539 36.4133 33.5552L37.1687 32.0719L37.7799 32.0012C38.7889 33.0725 39.9685 33.9738 41.2874 34.6815C42.9749 35.5682 44.7062 36.0587 46.4796 36.5222C46.9791 36.644 47.469 36.7793 47.8955 36.9005C47.4864 38.2361 47.1334 39.3552 46.8174 40.3575C45.7674 43.6837 45.1327 45.695 44.2202 49.9989H44.2208Z" fill="#00C5FF"/>
<path d="M86.3368 38.8226V38.1587L86.2605 38.125C84.8261 37.4875 83.6897 36.4106 82.9758 35.0104L77.2785 23.7936L77.471 24.7297C78.1714 28.1441 78.3302 30.3429 78.4351 31.7975C78.6703 35.0569 78.7589 35.1002 83.3973 37.368C84.1768 37.7496 85.0876 38.1946 86.1511 38.7289L86.3374 38.8226H86.3368ZM86.0798 38.3254V38.4051C85.0949 37.9112 84.2447 37.4959 83.5095 37.1367C80.4469 35.6395 78.8407 33.8535 78.691 31.779C78.5956 30.4512 78.4553 28.5072 77.9026 25.5906L82.7457 35.1265C83.4747 36.5553 84.6269 37.6598 86.0798 38.3254Z" fill="white"/>
<path d="M76.8949 22.1793L76.9241 21.2914C77.0111 18.6437 78.6369 16.276 81.0652 15.2585L82.292 14.7304L82.1259 14.5963C80.701 13.4453 79.1891 12.4026 77.6329 11.4968L77.5712 11.4609L73.8061 13.4397L73.8622 13.5525C74.9633 15.7799 75.9089 18.3928 76.671 21.3189L76.8949 22.1781V22.1793ZM81.7976 14.6636L80.9642 15.0223C78.6722 15.9825 77.0683 18.1027 76.7294 20.5462C76.0105 17.9366 75.144 15.5874 74.1473 13.5519L77.5639 11.7561C79.0275 12.6113 80.4501 13.5884 81.797 14.6636H81.7976Z" fill="white"/>
<path d="M42.309 49.1901L42.3506 49.1076C42.3556 49.098 42.3579 49.0952 42.3685 49.084L42.3955 49.0576L42.4033 49.0206C42.4151 48.9673 42.4247 48.9167 42.4336 48.8679C42.446 48.8017 42.4572 48.7411 42.4729 48.6844C42.6463 47.7556 42.8394 46.7157 43.1447 45.728L43.2519 45.3907L43.2502 45.366L43.0841 43.1044L44.2199 42.2211L45.4293 38.2668L45.3014 38.232C43.7165 37.7966 42.0307 37.2971 40.3791 36.4132C39.5294 35.9525 38.7724 35.4603 38.0658 34.9097L37.9508 34.8199L37.8761 34.9457C37.3267 35.8756 36.6387 36.6764 35.8317 37.3268L35.78 37.3684L35.784 37.4346L36.4052 48.2585L36.5051 48.2759C38.3806 48.6098 40.3022 48.9128 42.2181 49.1777L42.3096 49.1901H42.309ZM42.992 45.3604L42.8994 45.6511C42.5896 46.654 42.3949 47.7017 42.2232 48.626C42.208 48.6777 42.1946 48.7467 42.1811 48.8208C42.1755 48.85 42.1704 48.8791 42.1637 48.91C40.3151 48.6535 38.4614 48.3606 36.6499 48.0402L36.0444 37.4856C36.8166 36.8526 37.481 36.0855 38.022 35.2016C38.7067 35.7257 39.4391 36.1971 40.2567 36.6399C41.8881 37.5131 43.5442 38.0143 45.1055 38.4453L43.9971 42.0684L42.8169 42.9865L42.9915 45.3604H42.992Z" fill="white"/>
<path d="M77.0907 15.3925L77.2327 15.2426C77.4381 15.0243 77.6851 14.7959 78.0083 14.5232L78.1464 14.407L77.992 14.3144C77.9219 14.2723 77.8523 14.2268 77.7821 14.1819C77.7097 14.1342 77.6362 14.0871 77.5633 14.0433L77.5015 14.0063L76.699 14.4255L76.7512 14.5372C76.85 14.7482 76.9364 14.9777 77.0189 15.2L77.0913 15.393L77.0907 15.3925ZM77.7086 14.4407C77.5077 14.6135 77.3377 14.7701 77.1884 14.9194C77.1396 14.792 77.0891 14.664 77.0346 14.54L77.492 14.3015C77.542 14.3323 77.5919 14.3655 77.6418 14.3974C77.6637 14.412 77.6862 14.4266 77.7086 14.4407Z" fill="white"/>
<path d="M7.66079 2.88815C7.47503 2.91677 7.3033 2.95942 7.11698 3.00263C6.65904 3.11712 6.20167 3.26022 5.74373 3.44598C4.6853 3.88933 3.76999 4.47522 3.04043 5.16157C2.58249 5.59033 2.19638 6.0623 1.89614 6.5483C1.78165 5.86251 1.86751 5.17616 2.1397 4.54706C2.49718 3.66036 3.19812 2.93136 4.15665 2.53122C5.11518 2.14512 6.13096 2.17374 7.00363 2.54525C7.23203 2.63112 7.461 2.75963 7.66079 2.88815ZM8.54749 3.73163C8.2899 3.77428 8.01828 3.8175 7.76069 3.88877C7.28872 4.00325 6.83077 4.1458 6.37339 4.33156C5.28635 4.77491 4.35644 5.38942 3.62688 6.0898C3.06904 6.60442 2.62569 7.19088 2.31142 7.79136C2.28224 7.71953 2.23959 7.64825 2.19638 7.56239C2.468 6.91925 2.94053 6.27612 3.55504 5.70425C4.21333 5.08918 5.05738 4.5465 6.02994 4.1458C6.45926 3.96004 6.88802 3.83153 7.30274 3.73107C7.67482 3.63118 8.0323 3.57337 8.38979 3.54531C8.44703 3.60256 8.50428 3.66036 8.54749 3.73163ZM2.81145 8.47771C3.06904 7.83457 3.52699 7.20547 4.14206 6.61957C4.79979 5.99047 5.65843 5.43263 6.64558 5.01847C7.08893 4.84674 7.51824 4.70419 7.93297 4.60374C8.27643 4.51788 8.61988 4.46063 8.96333 4.43201L9.02002 4.56109C9.42071 5.51906 9.3775 6.53371 9.02002 7.42041C8.64794 8.29251 7.947 9.0361 6.98903 9.42221C6.04453 9.82235 5.01473 9.77969 4.14206 9.42221C3.64147 9.20783 3.18353 8.893 2.81145 8.47771Z" fill="white"/>
<path d="M43.7231 2.75944C43.5227 2.87393 43.4514 3.04565 43.4228 3.17417C43.5513 2.98841 43.6512 2.8453 43.7231 2.75944ZM36.6424 9.99332H36.657C36.6278 9.67905 36.6278 9.36421 36.6424 9.04994C36.6856 8.07794 37.0431 7.31976 37.4292 6.84835C37.4152 6.83432 37.4006 6.83432 37.3865 6.81973C37.2148 6.71983 37.1576 6.50489 37.2575 6.33373C37.2575 6.33373 37.8299 5.54749 39.3889 5.84773C40.6191 6.09073 41.2195 5.93359 41.2195 5.93359C41.3054 5.90497 41.3913 5.90497 41.4631 5.93359C41.5776 5.93359 41.6775 5.9768 41.7634 6.0767C41.7634 6.0767 41.8784 6.27705 42.622 6.79167C42.5221 6.63453 42.4362 6.44821 42.393 6.20521C42.2219 5.44759 42.6646 4.44697 43.1085 3.70338H43.0519C42.8942 3.70338 42.7511 3.5889 42.7084 3.44635C42.5227 3.54624 42.4082 3.71797 42.3363 3.90373C42.4362 4.00362 42.4649 4.16132 42.393 4.28984C42.3644 4.3757 42.2931 4.43294 42.2218 4.47559C42.1927 4.64732 42.0355 4.77584 41.8638 4.77584C41.6635 4.77584 41.4917 4.6187 41.4917 4.41835L41.5063 4.38973C41.3486 4.41835 41.2347 4.50421 41.1488 4.6187C41.1488 4.68997 41.1342 4.77584 41.077 4.84767C41.0484 4.87629 41.0052 4.91894 40.9771 4.93353C40.9625 4.97618 40.9485 5.0194 40.9485 5.0194C40.9345 5.07664 40.9058 5.11929 40.8626 5.1625C40.9345 5.19112 40.9625 5.20572 40.9625 5.20572C41.1488 5.27699 41.2487 5.49137 41.1634 5.67768C41.0916 5.86344 40.8918 5.94931 40.7055 5.87803C40.6909 5.87803 38.9742 5.16306 37.5869 5.93528C36.1424 6.73611 35.341 8.78 35.341 8.78C35.3123 8.85184 35.2551 8.90852 35.1833 8.95173C35.1406 9.00897 35.0688 9.06622 34.9975 9.08025L31.9507 9.89511C31.9081 9.9097 31.8509 9.9097 31.8076 9.9097L31.7504 9.89511L32.7802 11.3105C35.0834 10.5242 36.6284 9.995 36.6424 9.995V9.99332ZM64.7939 11.8088C64.6087 11.7662 64.4796 11.5804 64.5223 11.38C64.5655 11.1943 64.7513 11.0658 64.9522 11.1084C65.2524 11.1657 65.5526 11.2942 65.8383 11.4799C65.4954 9.59318 64.7372 7.79173 63.8068 6.36179C62.7197 4.68885 61.4183 3.55971 60.3312 3.4312C59.0152 3.28809 56.6548 3.2735 54.6665 3.48844C53.1933 3.63155 51.9632 3.88858 51.5771 4.26009C50.9328 4.87461 50.5186 6.26189 50.3323 7.09079C51.5198 6.50433 52.9784 6.20409 54.4515 6.2619C56.4258 6.33317 58.4568 7.04814 59.8879 8.54935C60.0304 8.67786 60.1595 8.835 60.274 8.97811C63.149 12.5664 62.3196 14.511 62.3196 14.525C62.2629 14.6681 62.1046 14.754 61.9621 14.7394L60.4603 14.7108C60.4889 15.2254 60.6175 16.1402 61.0322 16.5263C61.4043 16.8978 61.9043 17.0695 62.2191 17.1554C62.291 16.698 62.1905 16.3545 62.1905 16.3545C62.1187 16.1688 62.2331 15.969 62.4189 15.9117C62.6047 15.8399 62.8056 15.9404 62.8768 16.1261C62.8768 16.1402 63.0778 16.7979 62.8628 17.5841L62.8488 17.6127C62.8488 17.67 62.8348 17.7272 62.7915 17.7699C62.6344 18.2273 62.3196 18.7278 61.7191 19.128C60.9177 19.6998 60.1735 19.9574 59.4013 20.2145L54.3943 23.3314H54.451C54.6513 23.3028 54.8376 23.4459 54.8517 23.6457C54.8809 23.846 54.7372 24.0172 54.5374 24.0458C54.5228 24.0458 48.1285 24.7748 45.74 22.9021C43.4801 21.1292 41.7779 15.8826 41.6489 15.4538C41.4631 15.139 40.962 14.2388 40.6337 13.1809C40.5618 13.2668 40.4479 13.3235 40.3328 13.3235C39.5466 13.2949 38.0869 13.8381 38.0869 13.8527L38.0443 13.8667L38.0583 13.9526C38.0723 13.9812 38.0869 14.0239 38.1015 14.0671C38.1155 14.1243 38.1015 14.1956 38.0869 14.2674L38.3019 16.2692C40.848 28.0202 43.4374 28.7066 48.2009 29.9648C50.1606 30.4794 52.4632 31.0799 55.2535 32.5093C53.1933 30.6225 51.6483 30.265 51.6337 30.265C51.448 30.2218 51.3335 30.022 51.3762 29.8217C51.4194 29.6359 51.6197 29.5214 51.8055 29.5641C51.8195 29.5641 54.4229 30.1646 57.3558 33.7097L57.4276 33.7529C57.5275 33.8101 57.5847 33.896 57.5993 33.9959C58.0281 34.5245 58.4574 35.125 58.8867 35.7827C62.3196 41.1007 64.6805 46.6908 64.694 46.7048C64.694 46.7189 64.7086 46.7335 64.7086 46.748C65.152 46.4905 65.8383 46.1043 66.6678 45.7615C68.2986 45.0751 69.7577 44.2889 71.131 43.5739C71.8033 43.2164 72.447 42.8589 73.0907 42.5446C72.7764 38.742 71.9745 18.8132 64.7933 11.8077L64.7939 11.8088ZM73.1771 37.5702C73.5346 39.7145 73.7058 41.4447 73.7776 42.2163C74.7075 41.7736 75.6088 41.4161 76.4955 41.1731C75.7519 40.801 74.3927 39.8436 73.1771 37.5702ZM64.1934 47.4916C64.5223 47.9204 65.1374 48.3924 66.2676 48.2347C67.083 48.1061 68.4995 47.2627 70.1444 46.262C72.6479 44.7462 75.6947 42.9021 78.3407 42.6305C77.7829 42.1445 77.2823 41.8869 77.0679 41.787C75.2945 42.1731 73.4774 43.1305 71.4604 44.203C70.0877 44.932 68.6 45.7182 66.9551 46.4186C65.7249 46.9332 64.8377 47.2767 64.194 47.4911L64.1934 47.4916ZM79.0417 43.3028C79.0125 43.3169 78.9844 43.3169 78.9558 43.3169C76.395 43.3309 73.1485 45.2895 70.5159 46.8766C68.7992 47.9058 67.3406 48.7925 66.3821 48.935C64.7086 49.1926 63.8646 48.3346 63.4639 47.7055C63.1776 47.7627 62.9779 47.7773 62.8628 47.7627C61.8616 48.4777 60.4165 49.5928 58.8003 51.1793C55.6531 54.253 53.9509 54.7395 53.9369 54.7395C53.7512 54.7962 53.5508 54.6823 53.4936 54.496C53.4363 54.3102 53.5362 54.1099 53.7371 54.0532C53.7371 54.0532 54.4381 53.8528 55.8399 52.795C55.8259 52.0946 55.5964 48.0483 53.0788 47.0477C52.6927 46.8906 52.3925 46.9332 52.1489 47.1196C52.2062 47.9204 52.6495 53.8674 53.1641 57.999C53.3791 59.7432 53.3645 61.9588 53.264 64.2177C54.0082 64.1178 56.4825 63.8461 58.1274 64.4326C57.5555 61.6591 55.8102 60.5154 55.7962 60.5008C54.7518 60.172 54.0941 59.8431 54.0941 59.8431C53.9077 59.7572 53.8365 59.5288 53.9223 59.3571C54.0082 59.1713 54.2226 59.1001 54.4083 59.1859C54.4083 59.2 57.6414 60.8297 61.1461 60.301C64.7226 59.7572 67.4259 58.4423 67.44 58.4423C67.454 58.4283 67.4691 58.4283 67.4826 58.4283C66.1812 55.7834 65.2081 53.6676 65.2081 53.6536C65.1362 53.4679 65.2081 53.2675 65.3938 53.1816C65.5796 53.0958 65.7945 53.1816 65.8664 53.3674C65.8664 53.3674 66.8389 55.5118 68.1976 58.2566C69.0276 59.9009 69.9715 61.759 70.9155 63.418C71.6456 64.6902 72.346 65.8625 73.0043 66.7633C73.6766 66.6202 74.4062 66.5629 75.1503 66.6202C78.1258 66.8778 79.5703 67.4491 81.2298 68.1073C81.5166 68.2072 81.8022 68.3217 82.1025 68.4362L83.4471 67.3929L83.4331 67.3643C83.3612 67.1926 83.4471 66.9782 83.6334 66.8923C83.8051 66.8205 84.0195 66.9064 84.1059 67.0927C84.1059 67.0927 84.1486 67.2212 84.4629 67.3789C83.891 66.1779 82.7181 63.5044 81.6451 60.145C80.1714 55.5275 79.4991 52.8258 79.485 52.8258C79.4424 52.6255 79.5569 52.4397 79.7426 52.3825C79.9284 52.3258 80.1287 52.4397 80.186 52.6401C80.186 52.6401 80.2859 53.0402 80.4862 53.7838C82.0884 48.1656 80.558 44.9775 79.0417 43.3051V43.3028ZM52.6349 77.256H52.649L52.6776 77.2706C53.1928 77.4558 54.5228 77.8997 55.7389 77.9138C55.8388 77.1556 55.9679 76.3407 56.1537 75.4551C55.2956 75.2834 53.5648 74.9972 52.8067 74.8547C52.778 75.6409 52.7208 76.4558 52.6349 77.256ZM55.6677 78.6287C54.4229 78.6001 53.1355 78.1859 52.5491 77.9856C52.4924 78.4003 52.4346 78.7864 52.3633 79.172C52.163 80.4162 51.8913 81.5026 51.5911 82.203C52.1489 82.0885 52.7926 82.0178 53.5222 82.0885C54.4089 82.1744 55.0952 82.3321 55.625 82.5465C55.5532 81.7883 55.4959 80.4588 55.6677 78.6293V78.6287ZM52.8207 74.1251C53.5216 74.2542 55.4533 74.5971 56.2968 74.7402C56.583 73.51 56.9551 72.1665 57.4697 70.7085C57.7413 69.9363 57.9271 69.1933 58.0707 68.5209C56.1396 67.5344 53.7074 67.6348 53.0637 67.6921L53.0351 68.2493C52.892 70.351 52.7775 72.2524 52.8061 73.496C52.8201 73.7104 52.8201 73.9107 52.8201 74.1251H52.8207ZM53.1215 66.9631C53.9229 66.9058 56.2401 66.8632 58.1852 67.7779C58.3143 66.848 58.3278 66.0051 58.257 65.2761C56.7266 64.4612 53.6939 64.876 53.236 64.9472C53.1933 65.619 53.1501 66.3053 53.1215 66.9631ZM41.3346 6.67662V6.69065C41.4059 6.891 41.3054 7.09079 41.1056 7.14803L39.4748 7.69127C39.4029 7.71989 39.3317 7.71989 39.2604 7.69127C39.289 8.27773 39.289 8.92086 39.289 9.34962C39.5034 9.30641 40.0612 9.14927 40.8912 8.80638L42.9941 7.91968L43.0373 7.90565C42.0215 7.29114 41.5349 6.89044 41.3352 6.67606L41.3346 6.67662ZM43.9094 8.42083C44.3241 8.73567 44.9678 9.09315 45.6833 9.12121C46.7704 9.16443 47.6144 9.06397 47.9293 9.03535L48.3154 7.7777C48.587 6.90559 48.9304 5.61876 49.0449 5.19C48.6016 5.16138 48.4304 5.04746 48.4304 5.04746C48.33 5.00481 48.2727 4.93297 48.2441 4.83308C47.8866 5.53346 47.3288 6.24843 46.9286 6.76305L46.9146 6.77708C46.7569 6.97743 46.6284 7.13456 46.5712 7.23446C46.0133 8.04932 44.4111 7.59194 44.4111 7.59194C44.282 7.56332 44.1821 7.46343 44.1535 7.33491C43.9958 7.36353 43.7534 7.39215 43.4958 7.34894C43.6529 7.44883 43.8246 7.54929 44.0104 7.66321C45.8988 8.73567 46.5279 8.27829 46.5279 8.27829C46.6997 8.1784 46.9286 8.23508 47.0285 8.4068C47.1284 8.57797 47.0572 8.80694 46.8854 8.9074C46.8854 8.9074 45.9841 9.5365 43.9099 8.4214L43.9094 8.42083ZM49.0163 7.96346C49.0736 7.90621 49.1308 7.84897 49.2021 7.80632C49.2879 7.73505 49.3878 7.64918 49.4877 7.59194C49.5169 7.40618 49.7453 6.17659 50.2173 5.09011C50.0601 5.11873 49.917 5.13332 49.7885 5.16194C49.7885 5.17597 49.7745 5.20515 49.7745 5.23321C49.7745 5.23321 49.3311 6.9488 49.0163 7.96402V7.96346ZM35.5986 11.109V11.1376C35.5986 11.1376 35.6844 13.0103 36.0419 13.1821C36.414 13.3678 37.1716 13.1534 37.3865 13.0822C37.3433 12.9823 36.9432 11.9957 36.7428 10.7234L35.5986 11.1095V11.109ZM37.3153 13.8398L37.2721 13.8538H37.3153V13.8398ZM35.7271 13.8252C35.098 13.525 34.9262 11.8952 34.883 11.352L34.7259 11.4092C34.7259 11.4951 34.7691 13.3392 35.4128 13.7107C35.4987 13.7539 35.6131 13.7966 35.7271 13.8252ZM40.2189 6.69177C39.9327 6.67774 39.6184 6.63453 39.2464 6.56326C39.1897 6.54867 39.1178 6.53464 39.0606 6.53464L39.0746 6.54867C39.1319 6.66315 39.1605 6.83488 39.1897 7.03467C39.2183 7.02064 39.2323 7.02064 39.2464 7.00605L40.2189 6.69177ZM40.2475 4.99021C40.233 4.93297 40.233 4.8617 40.2616 4.80446V4.78987C39.9467 4.73262 39.546 4.80446 39.303 4.8617C39.6605 4.87573 39.99 4.93297 40.2475 4.99021ZM38.6453 4.87573C38.1728 4.83308 37.1576 4.87573 36.3276 5.93359C36.2557 6.01946 36.199 6.10532 36.1418 6.19062C36.4561 5.84773 36.8141 5.53289 37.2288 5.30449C37.6868 5.04746 38.1728 4.91838 38.6453 4.87573ZM28.5892 10.4659C21.3222 12.3526 4.49962 16.3702 0.737888 17.2564C2.66954 17.1565 9.40619 16.7131 14.4273 15.3124C18.547 14.1546 25.0272 11.7953 28.5892 10.4659ZM0.0363871 17.9568C-0.0635066 18.5713 0.0655655 18.9147 0.151429 19.0578C1.36699 19.1577 9.43537 19.701 14.0125 17.9281C17.4173 16.5987 26.5004 13.4537 32.0652 11.5523L31.1353 10.2801C29.4764 10.9092 20.0494 14.4829 14.6282 15.9987C8.64857 17.6711 0.265916 18.0005 0.237856 18.0005C0.166023 18.0005 0.0947526 17.9865 0.0369489 17.9573L0.0363871 17.9568ZM54.309 13.9111L59.0725 13.8398H59.1724C59.3727 13.8538 59.5158 14.0255 59.5018 14.2259C59.5018 14.2405 59.3014 17.1138 57.6128 19.0292C57.5987 19.0578 57.5842 19.0865 57.5561 19.1151C57.5275 19.1577 57.4994 19.1864 57.4562 19.2009C57.2845 19.3867 57.0987 19.5438 56.8978 19.7015C56.455 20.059 55.8108 20.3447 55.0526 20.5877C55.0386 20.6017 55.024 20.6309 55.0099 20.6449L51.7196 23.4756C52.1489 23.4756 52.5491 23.4616 52.9066 23.447C52.9357 23.4043 52.9638 23.3752 52.9924 23.3471C53.0064 23.3471 55.3814 21.5597 56.9264 20.545C57.7132 20.0444 58.4428 19.7874 59.1583 19.5444H59.1724C59.8879 19.3014 60.5888 19.0584 61.3038 18.5438C61.6327 18.3294 61.8324 18.0864 61.9761 17.8288C61.576 17.7289 61.0036 17.4999 60.5316 17.0572C59.7162 16.2855 59.7162 14.3555 59.7162 14.3555V14.3415C59.7162 14.1412 59.8879 13.984 60.0882 13.984L60.8464 13.9986L59.7308 13.727C59.6741 13.713 59.6163 13.6843 59.5736 13.6271L59.1437 13.241L53.6221 13.0979L52.4924 13.9127C52.4351 13.9414 52.3779 13.97 52.3066 13.97L47.1997 14.4274C47.1711 14.4414 47.1279 14.456 47.0852 14.456C47.042 14.47 46.9993 14.456 46.9561 14.456C46.1839 14.6563 45.6115 14.8847 45.3253 15.0851C45.5689 15.1569 45.9976 15.185 46.6559 15.171C49.2307 15.0851 53.2932 14.0991 53.9229 13.9414C54.0228 13.8695 54.1659 13.8555 54.295 13.9127H54.309V13.9111ZM57.656 14.5828L54.3516 14.6401C54.0654 15.2119 53.3359 16.6419 52.6781 17.3136C53.5794 17.1711 54.4807 17.0134 55.2961 16.8849C55.1963 16.4701 55.2821 16.07 55.6823 15.7698C56.2406 15.355 57.0129 14.9263 57.6566 14.5828H57.656ZM47.3855 13.6821L52.1489 13.2674L53.3078 12.4385C53.3796 12.3953 53.4655 12.3666 53.5362 12.3666L59.3014 12.5243C59.4013 12.5243 59.4732 12.553 59.5444 12.6242L60.0024 13.039L61.7196 13.4817C61.6618 12.7101 61.2763 11.3806 59.7167 9.43605C59.6022 9.2935 59.4878 9.16443 59.3733 9.04994C58.0718 7.69183 56.2412 7.04814 54.424 6.99146C52.6074 6.92018 50.8194 7.42021 49.6465 8.36359C49.5466 8.44946 49.4462 8.53532 49.3603 8.62118C47.4719 10.4367 47.358 12.7814 47.3866 13.6821H47.3855ZM52.6349 18.0426C53.3645 18.6717 54.4948 19.6723 54.795 19.9294C55.4819 19.715 56.0538 19.4434 56.4545 19.1431C56.5544 19.0573 56.6548 18.9854 56.7407 18.9001C56.4258 18.5999 55.9252 18.0993 55.5964 17.5561C54.6951 17.7132 53.6653 17.8849 52.6355 18.0421L52.6349 18.0426ZM53.9936 20.1584C53.3499 19.5579 52.1343 18.4568 51.705 18.1998L51.6192 18.2138C49.9602 18.4714 48.2722 18.6285 47.0414 18.7144C47.0274 18.743 47.0274 18.7716 47.0274 18.8002C47.0274 18.9574 47.5286 19.9294 48.2003 20.9586C49.5736 20.8733 52.0193 20.6584 53.9936 20.1584ZM58.7004 14.8685C58.0275 15.1973 56.8546 15.8118 56.111 16.3551C55.9685 16.455 55.9393 16.5981 55.9685 16.7698C57.3125 16.5408 58.2857 16.3697 58.2857 16.3697H58.2997C58.5 15.7978 58.6286 15.2546 58.7004 14.8685ZM56.3254 17.4416C56.6122 17.7991 56.9837 18.1565 57.2272 18.3709C57.5415 17.9994 57.7845 17.5701 57.9854 17.1559L56.3259 17.4421L56.3254 17.4416ZM46.2978 18.7565L45.7254 18.7997C46.0262 19.2857 46.6267 20.1292 47.3568 21.0159L47.3855 21.0013C46.7558 19.972 46.2984 19.0141 46.2984 18.7997V18.7565H46.2978ZM50.6466 23.4459L53.479 21.0013C52.8925 21.1298 52.2769 21.2443 51.6618 21.3301L50.389 23.4459H50.6466ZM49.7885 23.0457L50.7465 21.4446C49.9743 21.5445 49.2593 21.6018 48.6583 21.645C49.0444 22.1882 49.431 22.6888 49.7885 23.0463V23.0457ZM100.827 75.2834L101.2 74.9972C100.356 74.5971 99.4974 74.1823 98.6966 73.7822L98.1247 74.3687L98.3677 74.4405C99.2404 74.7121 100.07 74.9837 100.828 75.284L100.827 75.2834ZM101.944 75.3407L101.614 75.5977C102.902 76.1409 103.989 76.7268 104.719 77.3559C104.804 77.4278 104.891 77.499 104.976 77.5849C105.062 77.4558 105.291 77.1848 105.663 76.9844C104.648 76.5697 103.346 75.9978 102.001 75.3687L101.944 75.3401V75.3407ZM97.366 74.1105L98.0383 73.4388C97.5231 73.1671 97.0512 72.9095 96.637 72.6665C96.036 72.3236 95.4781 71.9802 94.9349 71.6513C94.0336 71.1081 93.1469 70.5648 92.2596 70.1075L91.7731 71.8943L91.988 71.9802C93.7906 72.7378 95.6078 73.51 97.3666 74.11L97.366 74.1105ZM91.1002 71.6092L91.6008 69.7646C90.7001 69.3218 89.8134 68.9789 88.8975 68.764L88.6825 70.6226C89.4834 70.9369 90.2848 71.2658 91.1002 71.6092ZM87.9956 70.351L88.1965 68.6354C87.9103 68.5928 87.6241 68.5788 87.3385 68.5636C86.6802 68.5496 86.1364 68.4923 85.679 68.4211L84.5779 69.2499L84.8495 69.3218C85.8648 69.5934 86.9091 69.9509 87.9962 70.351H87.9956ZM83.7047 69.0075L84.7491 68.2213C84.4197 68.1068 84.1767 67.9929 83.9763 67.8924L82.9033 68.7359C83.1463 68.8218 83.4185 68.9076 83.7041 69.0075H83.7047ZM80.3577 76.4412V76.4558C81.1585 76.9564 82.0317 76.3699 82.0317 76.3699C82.1171 76.3127 82.2169 76.2981 82.3174 76.3267C82.2029 75.183 82.7894 73.4674 83.3618 72.0947L82.6036 71.7091C82.4605 71.6519 82.3174 71.5801 82.1603 71.5234C81.2017 73.7676 80.3577 76.4266 80.3577 76.4406V76.4412ZM79.6567 76.3559C79.6567 76.3127 79.6567 76.27 79.6708 76.2268C79.6708 76.2128 80.5148 73.5538 81.4874 71.2804L81.287 71.2091C80.9296 71.0941 80.6007 70.9801 80.3291 70.8516C79.1416 73.1677 78.7122 75.8407 78.7122 75.8553C78.6982 75.9406 78.6556 76.0124 78.5978 76.0556C79.0557 76.5562 79.485 76.4412 79.6567 76.3559ZM77.9973 75.8839C77.9832 75.8407 77.9832 75.784 77.9973 75.7262C77.9973 75.7262 78.4552 72.9095 79.714 70.4941C79.4278 70.3224 79.0843 70.1507 78.3834 69.9509L78.2835 70.1512C78.1684 70.3942 78.0259 70.7517 77.8828 71.1519C77.8688 71.1945 77.8688 71.2377 77.8401 71.2944C77.8256 71.309 77.8115 71.3376 77.7969 71.3516C77.1964 72.9241 76.4815 75.1117 76.4663 75.1257C76.4523 75.1549 76.4377 75.1976 76.4096 75.2256C76.8244 75.8833 77.6252 75.912 77.9973 75.8833V75.8839ZM75.9231 74.4972L76.023 74.1829C76.0095 74.1689 75.9803 74.1403 75.9511 74.1257C75.9511 74.1257 75.1649 73.1823 73.5767 72.3107C71.9458 71.41 69.9149 70.5806 69.9149 70.5806C69.7285 70.4953 69.6432 70.2803 69.7285 70.1091C69.815 69.9234 70.0153 69.8375 70.2005 69.9234C70.2005 69.9234 72.2461 70.7523 73.9202 71.6816C75.1503 72.354 75.9377 73.0684 76.2946 73.4258L76.4663 72.9253C76.4377 72.9107 76.4237 72.8961 76.3945 72.882C76.3945 72.882 74.707 71.5526 73.6917 70.9094C72.69 70.2798 70.3015 69.5367 70.2869 69.5367C70.1292 69.48 70.0293 69.3223 70.0434 69.1646C69.7998 69.4363 69.6141 69.7225 69.5142 69.9941V70.0227C69.3851 70.3656 69.3716 70.695 69.5001 70.9947C69.6859 71.4953 70.2437 71.9527 71.2595 72.2529C74.1065 73.1104 75.3652 73.9545 75.9231 74.4972ZM76.7239 72.2103C76.8244 71.8954 76.9529 71.5806 77.0533 71.2804C76.8384 71.1519 76.4523 70.9375 75.8378 70.5946C74.6503 69.9369 71.718 68.4643 71.7034 68.4643C71.5463 68.379 71.475 68.2072 71.5317 68.0495C71.0883 68.2639 70.6876 68.5355 70.3728 68.8218C70.416 68.8218 70.4592 68.8218 70.5159 68.8358C70.5159 68.8498 72.9902 69.622 74.0638 70.2943C74.9645 70.8516 76.3097 71.8949 76.7245 72.2103H76.7239ZM77.325 70.5946C77.4394 70.3084 77.5399 70.0513 77.6252 69.851L77.6684 69.7651C76.1094 69.3364 74.0352 67.8643 74.0352 67.8643C73.8635 67.7499 73.8343 67.5209 73.9488 67.3638V67.3492C73.2624 67.4064 72.6047 67.5781 72.0177 67.8211H72.0317C72.0457 67.8352 74.9354 69.2651 76.1941 69.9655C76.7379 70.2657 77.096 70.4661 77.3244 70.5952L77.325 70.5946ZM77.9687 69.0934C78.2689 68.393 78.4266 67.9637 78.4406 67.8924C77.5539 67.6494 76.4949 67.4636 75.0936 67.3492C74.8933 67.3351 74.7075 67.3205 74.5072 67.3205C74.8641 67.5641 76.6813 68.7791 77.9687 69.0934ZM79.1416 68.0928L79.1275 68.1068C79.1275 68.1068 78.9844 68.5496 78.6696 69.2937C79.6567 69.5799 79.9856 69.8083 80.3863 70.0794H80.4003C80.6012 70.2085 81.03 70.3656 81.5166 70.5228C81.9885 70.6799 82.5037 70.8656 82.9179 71.066L83.6474 71.4381C84.0195 70.6232 84.3203 70.0368 84.3776 69.9509C82.9471 69.5508 81.9167 69.1501 80.9728 68.764C80.3577 68.5355 79.7853 68.2925 79.1416 68.0922V68.0928ZM98.2813 79.4582C98.2813 79.4442 98.2953 79.4155 98.2953 79.4015L83.7333 73.6256C83.6474 73.597 83.5908 73.5398 83.5476 73.4685C83.4617 73.6829 83.3758 73.8973 83.3046 74.1116H83.3191L97.8666 79.3723C98.0529 79.4442 98.1528 79.6439 98.0815 79.8303C98.0097 80.016 97.8099 80.1165 97.6236 80.0447L83.1048 74.798C82.8045 75.8845 82.7899 76.7712 83.4622 76.8424C84.9646 77.0001 88.3975 78.2292 91.4728 79.3302C93.4471 80.0306 95.2637 80.6738 96.2795 80.9459C96.7655 81.0745 97.238 81.2176 97.6814 81.3747L97.7667 81.1036C97.7381 81.089 97.71 81.089 97.6668 81.0745C97.6528 81.0745 93.4471 79.5446 89.6136 78.0726C86.009 77.0288 82.7467 76.0422 83.4763 76.0422V75.4849C83.3191 75.385 83.3046 75.3132 83.4763 75.3132C83.6766 75.3132 83.8343 75.4849 83.8343 75.6852V75.6993C83.6766 75.6134 83.5627 75.5421 83.4763 75.4849V76.0422C83.6766 76.0422 83.8343 75.885 83.8343 75.6993C84.8215 76.1999 87.1381 77.1287 89.6136 78.0726C93.547 79.2017 97.8958 80.3881 97.9104 80.4027C97.939 80.4027 97.9536 80.4167 97.9822 80.4313L98.2824 79.4588L98.2813 79.4582ZM98.9682 79.6726L98.3672 81.6317C99.4256 82.0464 100.299 82.4892 100.799 82.7609C100.799 82.675 100.827 82.6032 100.899 82.5325C101.042 82.3893 101.271 82.3893 101.399 82.5325C101.414 82.5325 102.058 83.2042 101.114 86.1348C100.799 87.1646 100.356 87.7505 99.9694 88.122H99.998C100.012 88.122 102.573 88.9509 104.447 86.2639C106.45 83.3759 108.552 78.4435 108.552 78.4295L108.567 78.4009C108.495 78.315 108.409 78.2432 108.309 78.1725C106.278 76.7279 105.548 78.0294 105.534 78.0434C105.52 78.0866 105.477 78.1152 105.448 78.1433C105.791 78.6579 105.906 79.2017 105.735 79.759L105.678 79.9021C105.091 81.3887 103.933 81.7889 103.06 82.0751C102.774 82.1896 102.502 82.2754 102.359 82.3753C102.202 82.5038 101.973 82.4612 101.858 82.3035C101.743 82.1463 101.773 81.9179 101.93 81.8029C102.174 81.6317 102.473 81.5172 102.831 81.4033L103.103 81.3034L98.9688 79.6731L98.9682 79.6726ZM84.3057 72.0812C84.2485 72.0672 84.2058 72.0245 84.1767 71.9953C84.0341 72.2956 83.8904 72.625 83.7473 72.9533C83.8338 72.9247 83.9191 72.9247 84.0049 72.9673L103.502 80.7018C103.645 80.7445 103.731 80.887 103.731 81.0307C104.16 80.8163 104.575 80.4869 104.875 79.9442C104.776 80.016 104.632 80.0441 104.519 80.0014L84.3057 72.0812ZM84.4483 71.3808C84.4909 71.3949 84.5341 71.3949 84.5628 71.41L104.776 79.3297C104.919 79.3723 105.005 79.5154 105.005 79.6585L105.019 79.6445L105.047 79.5446C105.205 79.016 104.904 78.4581 104.246 77.9009C103.516 77.2718 102.372 76.6713 100.97 76.114C100.111 75.7711 99.1675 75.4422 98.1522 75.1274C96.0635 74.4843 93.8748 73.5549 91.7007 72.6402C89.3975 71.6676 87.1376 70.7102 85.0634 70.1243C85.0493 70.181 85.0342 70.2242 85.0207 70.2668C85.0207 70.2809 84.7777 70.7248 84.4483 71.3819V71.3808ZM99.7971 88.8084C99.6254 88.7651 99.5255 88.608 99.5395 88.4509C99.4396 88.5227 99.3392 88.5654 99.2679 88.6086L99.2112 88.6512C99.2539 88.6804 99.3397 88.7231 99.4542 88.7803C99.9402 88.9655 100.785 89.066 101.743 88.9515C102.687 88.837 103.732 88.5087 104.575 87.8077C105.119 87.3498 105.59 86.7493 105.891 85.9636C106.406 84.6341 107.078 83.4899 107.665 82.4606C108.423 81.1738 109.038 80.1159 108.981 79.2724C108.351 80.6592 106.677 84.3047 105.033 86.664C102.858 89.809 99.7971 88.8084 99.7971 88.8084ZM50.5316 60.6305C50.5742 60.6305 50.6174 60.6445 50.6601 60.6591C51.2892 60.8308 51.9907 61.0025 52.6198 61.0878C52.6057 60.7023 52.6057 60.3302 52.5912 59.9587C51.2892 59.7157 49.3149 58.8576 48.729 58.6006C48.0421 59.1579 48.4287 59.7724 48.5999 60.0014C48.7862 60.058 49.5725 60.3443 50.5316 60.6305ZM50.861 61.4594C50.9468 68.5215 50.3744 73.854 49.6881 80.3017L49.4305 82.7322C49.7307 82.7182 50.0742 82.6178 50.4743 82.5033L50.6034 82.4606C50.6174 82.432 50.646 82.418 50.6601 82.3888C51.0035 82.0745 51.3756 80.7304 51.6612 79.0581C51.948 77.2858 52.1338 75.1841 52.0906 73.5257C52.0479 72.2249 52.1764 70.3235 52.3055 68.2072C52.4481 66.1488 52.5917 63.8899 52.6057 61.8168C52.0479 61.745 51.4469 61.6165 50.861 61.4594ZM48.7295 82.4887L48.9725 80.2298C49.6589 73.7396 50.2313 68.3638 50.1454 61.259C49.5584 61.0873 49.0438 60.9161 48.7009 60.8016C48.5432 62.0739 48.4001 65.1189 48.2856 68.5215C48.1279 73.6105 48.0567 79.4868 48.0999 81.4594C48.3002 81.9741 48.5 82.2883 48.7295 82.4887ZM48.8867 57.8851C49.1583 57.9996 51.2039 58.9143 52.5485 59.2146C52.5345 59.0288 52.5345 58.8425 52.5059 58.6713L52.4918 58.6421C51.948 57.9704 51.5619 57.5411 51.104 57.2414C50.6752 56.9703 50.1314 56.784 49.3014 56.6269C49.2296 56.6701 49.1437 56.7268 49.0438 56.77C48.4001 57.0842 48.7295 57.6707 48.8867 57.8851ZM49.5304 55.9405C50.4171 56.1122 50.9895 56.3126 51.4901 56.6269C51.8044 56.8412 52.0765 57.0702 52.3622 57.385C52.2909 56.7273 52.2196 56.0556 52.1478 55.3692C50.8032 55.3552 49.3008 54.9545 48.9574 54.8546C48.8429 54.9405 48.8148 54.9831 48.8148 55.0258L48.8289 55.0403C48.8575 55.1256 48.986 55.2547 49.1151 55.3692C49.2582 55.5263 49.4013 55.6695 49.4866 55.8406C49.5006 55.8698 49.5158 55.9125 49.5298 55.9405H49.5304ZM49.7161 54.3108C50.3172 54.4399 51.2325 54.6256 52.0619 54.6402C51.8189 52.181 51.6186 49.7078 51.5041 48.2784C51.3324 48.8643 51.2033 49.5647 51.0608 50.2943C50.7745 51.7949 50.4737 53.368 49.7161 54.3113V54.3108ZM40.6466 86.1196C40.4608 86.0478 40.3603 85.848 40.4176 85.6623C40.4894 85.4765 40.6892 85.3761 40.8755 85.4333C40.8755 85.4333 42.2768 85.9053 46.483 85.5478C50.2594 85.2329 55.295 84.9041 56.3675 84.8323C56.4107 84.4175 56.3389 84.0606 56.1239 83.7744C56.0521 83.6745 55.9668 83.5886 55.8669 83.5028H55.8523L55.8383 83.4887C55.3949 83.1458 54.6508 82.9174 53.4638 82.8024C52.3336 82.7025 51.4182 82.9741 50.6747 83.1885C49.2582 83.6032 48.3429 83.8748 47.542 82.0016C46.0257 82.602 39.8457 85.0898 39.9748 85.9187C40.0601 86.3621 41.0905 86.7628 42.6927 86.9912C44.4234 87.2342 46.7693 87.2342 49.3014 86.8335L49.5444 86.7908C51.7185 86.4334 53.2068 86.4047 54.236 86.3907C55.524 86.3621 55.996 86.3621 56.2103 85.6045L56.2244 85.5618C54.8511 85.6477 50.1735 85.9619 46.5403 86.2622C42.1915 86.6337 40.6606 86.1191 40.6466 86.1191V86.1196ZM54.2085 23.346H54.2372L57.3271 21.1444L59.3867 20.2296C58.7144 20.4586 58.0281 20.687 57.3271 21.1444C56.354 21.7735 55.038 22.7315 54.2085 23.346ZM40.476 12.6237C40.4473 12.466 40.4041 12.3088 40.3901 12.1517C40.1617 10.7077 39.5028 10.4793 39.5028 10.4793C39.3311 10.4367 39.2312 10.2649 39.2452 10.0932C39.2166 10.0932 39.1886 10.0792 39.1594 10.0792C39.0881 10.1364 39.0022 10.165 38.9023 10.165C38.7014 10.151 38.5589 9.97929 38.5589 9.77894C38.5589 9.77894 38.6307 7.52011 38.4444 6.91962L38.4018 6.94824C38.3019 6.99146 38.1874 7.07676 38.0729 7.20527C37.73 7.56276 37.4006 8.20589 37.3574 9.09259C37.2715 10.9653 38.0583 12.838 38.0583 12.838C38.0869 12.9239 38.0869 13.0098 38.0583 13.0956C38.5449 12.9239 39.6465 12.5664 40.3474 12.595C40.4041 12.595 40.4473 12.6091 40.476 12.6237ZM46.3124 2.40196C46.2698 2.65899 46.1693 2.97382 45.9982 3.37396C45.5834 4.37458 44.8539 6.31914 44.6244 6.90503C44.8101 6.96227 45.7254 7.17665 45.969 6.83376C46.0549 6.70524 46.1839 6.53352 46.3411 6.33317L46.3551 6.31914C46.9994 5.50427 48.129 4.0603 47.8148 3.63155C47.3995 3.07371 46.6419 2.6023 46.3124 2.40196ZM44.8393 1.95861L44.8819 1.9732C45.0677 2.05906 45.1395 2.27344 45.0396 2.44461C44.9538 2.63036 44.7394 2.7022 44.5677 2.61633H44.5531C44.539 2.68817 44.5104 2.74485 44.4532 2.78806C44.4672 2.88796 44.4532 2.98841 44.3965 3.05968C44.3819 3.07371 42.8661 5.00424 43.0945 6.04752C43.2236 6.648 43.6956 6.67662 43.9532 6.648C44.1535 6.11935 44.74 4.54687 45.3404 3.10233C45.598 2.47323 45.6699 2.14436 45.598 1.98723C45.5554 1.91596 45.3691 1.87274 45.112 1.84412C45.0121 1.83009 44.9263 1.87274 44.8404 1.95861H44.8393Z" fill="white"/>
</g>
</svg>
