<svg width="29" height="60" viewBox="0 0 29 60" fill="none" xmlns="http://www.w3.org/2000/svg">
<path d="M5 3.00586H1V59.0059H5V3.00586Z" fill="#5C4746" stroke="#3F7AFF" stroke-width="0.54" stroke-miterlimit="10"/>
<path d="M4.81356 14.32V3.28333H1V17.3598C2.13534 16.1846 3.39681 15.1557 4.81356 14.32Z" fill="#DBDBDB" stroke="#9D8BF7" stroke-width="0.54" stroke-miterlimit="10"/>
<path d="M2 13.0059V59.0059" stroke="#F9FAF6" stroke-width="0.54" stroke-miterlimit="10"/>
<path d="M16.2546 3.00586H13.2546V59.0059H16.2546V3.00586Z" fill="#5C4746" stroke="#3F7AFF" stroke-width="0.54" stroke-miterlimit="10"/>
<path d="M16.6983 14.3197V3.28308H12.8848V17.3596C14.0201 16.1844 15.2816 15.1554 16.6983 14.3197Z" fill="#DBDBDB" stroke="#9D8BF7" stroke-width="0.54" stroke-miterlimit="10"/>
<path d="M14.2546 13.0059V59.0059" stroke="#F9FAF6" stroke-width="0.54" stroke-miterlimit="10"/>
<path d="M28.582 3.00586H24.582V59.0059H28.582V3.00586Z" fill="#5C4746" stroke="#3F7AFF" stroke-width="0.54" stroke-miterlimit="10"/>
<path d="M28.5821 14.3197V3.28308H24.7686V17.3596C25.9039 16.1844 27.1654 15.1554 28.5821 14.3197Z" fill="#DBDBDB" stroke="#9D8BF7" stroke-width="0.54" stroke-miterlimit="10"/>
<path d="M25.582 13.0059V59.0059" stroke="#F9FAF6" stroke-width="0.54" stroke-miterlimit="10"/>
<path d="M12.8843 1.00586H5V3.28318H12.8843V1.00586Z" fill="#3D1466" stroke="#3D1466" stroke-width="0.54" stroke-miterlimit="10"/>
<path d="M24.5815 1.00586H16.6973V3.28318H24.5815V1.00586Z" fill="#3D1466" stroke="#3D1466" stroke-width="0.54" stroke-miterlimit="10"/>
</svg>
